<svg version="1.1" xmlns="http://www.w3.org/2000/svg" viewBox="0 0 3057.189018349296 1554.5973833965547" width="9171.567055047888" height="4663.792150189664">
  <!-- svg-source:excalidraw -->
  
  <defs>
    <style>
      @font-face {
        font-family: "Virgil";
        src: url("https://excalidraw.com/Virgil.woff2");
      }
      @font-face {
        font-family: "Cascadia";
        src: url("https://excalidraw.com/Cascadia.woff2");
      }
    </style>
  </defs>
  <rect x="0" y="0" width="3057.189018349296" height="1554.5973833965547" fill="#ebfbee"></rect><g stroke-opacity="0.3" fill-opacity="0.3" stroke-linecap="round" transform="translate(811.5695390134968 10) rotate(0 189.47471104036248 103.54520082526972)"><path d="M16.21 10.11 C16.21 10.11, 16.21 10.11, 16.21 10.11 M16.21 10.11 C16.21 10.11, 16.21 10.11, 16.21 10.11 M7.29 44.76 C19.27 36.2, 25.81 22.68, 40.09 7.02 M7.29 44.76 C21.2 29.43, 32.08 16.53, 40.09 7.02 M6.9 69.6 C17.82 52.74, 33.61 41.52, 60.69 7.71 M6.9 69.6 C25.44 48.89, 45.88 25.58, 60.69 7.71 M7.16 93.68 C27.26 73.52, 42.09 47.3, 81.95 7.64 M7.16 93.68 C37.44 58.41, 68.04 26, 81.95 7.64 M6.77 118.51 C38.78 83.57, 67.89 48.52, 103.21 7.57 M6.77 118.51 C35.75 82.84, 68.18 48.14, 103.21 7.57 M7.04 142.6 C56.42 90.86, 102.02 38.4, 124.47 7.5 M7.04 142.6 C52.48 93.16, 98.95 39.85, 124.47 7.5 M4.03 170.45 C37.17 134.13, 69.88 93.91, 145.73 7.43 M4.03 170.45 C55.39 111.64, 107.37 50.02, 145.73 7.43 M9.54 188.5 C73.39 123.12, 133.14 48.88, 166.99 7.36 M9.54 188.5 C62.59 130.34, 115.25 70.93, 166.99 7.36 M20.3 200.5 C70.33 139.78, 124.42 83.15, 187.6 8.05 M20.3 200.5 C71.28 146.36, 118.18 89.38, 187.6 8.05 M36.32 206.47 C86.91 149.31, 136.91 92.35, 208.86 7.98 M36.32 206.47 C98.07 134.47, 158.17 65.22, 208.86 7.98 M54.95 209.42 C93.59 169.05, 127.61 129.71, 230.12 7.91 M54.95 209.42 C104.98 153.94, 155.61 98.42, 230.12 7.91 M76.21 209.35 C142.69 133.85, 208.03 53.88, 251.38 7.84 M76.21 209.35 C130.07 142.31, 184.83 80.75, 251.38 7.84 M97.47 209.28 C151.74 148.59, 203.73 94.57, 272.64 7.77 M97.47 209.28 C170.18 127.43, 237.99 45.65, 272.64 7.77 M118.08 209.97 C187.28 130.46, 255.42 55.12, 293.9 7.71 M118.08 209.97 C153.5 167.81, 190.79 125.39, 293.9 7.71 M139.34 209.9 C184 158.51, 231.72 110.93, 315.16 7.64 M139.34 209.9 C196.56 143.42, 252.93 77.9, 315.16 7.64 M160.6 209.83 C194.21 166.04, 232.29 130.57, 336.42 7.57 M160.6 209.83 C217.79 143.64, 280.79 72.22, 336.42 7.57 M181.86 209.76 C229.12 157.69, 273.68 106.95, 355.06 10.52 M181.86 209.76 C246.44 133.57, 310.56 56.27, 355.06 10.52 M203.12 209.69 C258.78 141.35, 322.05 70.6, 370.41 17.24 M203.12 209.69 C266.41 133.17, 331.29 55.9, 370.41 17.24 M224.38 209.62 C263.03 164.79, 305.95 113.62, 381.83 28.49 M224.38 209.62 C270.19 154.24, 320 99.34, 381.83 28.49 M245.64 209.55 C269.68 176.68, 300.48 141.96, 384.07 50.31 M245.64 209.55 C291.49 157.2, 337.7 102.02, 384.07 50.31 M266.9 209.48 C297.28 172.79, 332.05 136.68, 384.33 74.39 M266.9 209.48 C299.94 168.91, 336.42 128.35, 384.33 74.39 M288.16 209.42 C320.94 174.03, 345.62 139.62, 383.94 99.23 M288.16 209.42 C320.71 172.4, 348.66 137.23, 383.94 99.23 M309.42 209.35 C323.88 186.78, 342.01 173.5, 384.21 123.31 M309.42 209.35 C338.49 175.71, 365.86 145.19, 384.21 123.31 M330.68 209.28 C345.43 196.51, 357.37 180.32, 384.47 147.39 M330.68 209.28 C350.2 185.83, 370.69 163.08, 384.47 147.39 M359.81 200.15 C366.99 191.53, 370.76 185.54, 387.37 168.45 M359.81 200.15 C371.99 189.62, 378.92 176.72, 387.37 168.45 M19.96 199.58 C19.96 199.58, 19.96 199.58, 19.96 199.58 M19.96 199.58 C19.96 199.58, 19.96 199.58, 19.96 199.58 M52.34 206.53 C37.81 189.94, 13.27 171.07, 3.29 163.89 M52.34 206.53 C41.42 197.85, 33.58 189.76, 3.29 163.89 M76.42 206.26 C62.1 196.1, 45.86 177.24, 3.97 143.28 M76.42 206.26 C53.79 185.42, 32.76 166.25, 3.97 143.28 M101.26 206.65 C78.96 186.51, 63.58 173.88, 3.9 122.02 M101.26 206.65 C63.66 177.03, 27.09 144.42, 3.9 122.02 M125.34 206.39 C95.76 183.48, 56.59 149.74, 3.83 100.76 M125.34 206.39 C83.51 168.19, 36.1 130.7, 3.83 100.76 M149.42 206.12 C95.08 160.73, 44.85 116.85, 3.77 79.5 M149.42 206.12 C114.35 175.04, 78.16 145.33, 3.77 79.5 M174.26 206.51 C134.12 169.84, 97.37 136.9, 3.7 58.24 M174.26 206.51 C121.32 162.71, 66.6 117.54, 3.7 58.24 M198.34 206.24 C135.3 154.37, 75.34 103.37, 3.63 36.98 M198.34 206.24 C152.15 171.49, 108.37 132.82, 3.63 36.98 M223.18 206.63 C149.89 142.45, 75.37 82.73, 8.84 20.31 M223.18 206.63 C164.11 156.47, 108.28 107.57, 8.84 20.31 M247.26 206.37 C178.58 140.87, 106.61 81.82, 18.58 7.58 M247.26 206.37 C172.71 144.36, 100.22 79.34, 18.58 7.58 M271.34 206.1 C206.03 141.92, 137.77 80.7, 35.12 0.76 M271.34 206.1 C200.05 145.72, 131.68 84.01, 35.12 0.76 M296.18 206.49 C219.04 134, 136.79 68.61, 54.67 -3.45 M296.18 206.49 C204 122.06, 107.64 38.69, 54.67 -3.45 M320.26 206.23 C235.95 132.73, 153.05 59.18, 78.75 -3.71 M320.26 206.23 C265.45 157.12, 212.5 112.02, 78.75 -3.71 M338.3 200.71 C287.19 159.28, 237.2 114.71, 103.59 -3.32 M338.3 200.71 C254.97 129.82, 176.25 58.41, 103.59 -3.32 M360.12 198.48 C306.11 150.17, 251.62 104.7, 127.67 -3.59 M360.12 198.48 C275.72 125.61, 189.5 51.44, 127.67 -3.59 M371.37 187.06 C290.97 117.74, 207.64 47.25, 152.51 -3.2 M371.37 187.06 C305.98 128.8, 242.56 72.76, 152.51 -3.2 M381.87 174.98 C331.31 132.74, 281.52 90.02, 176.59 -3.47 M381.87 174.98 C338.08 135.08, 292.94 95.25, 176.59 -3.47 M384.07 155.69 C330.27 107.36, 275.25 64.89, 201.43 -3.08 M384.07 155.69 C340.52 121.13, 299.86 88.32, 201.43 -3.08 M384 134.43 C329.06 90.1, 278.45 41.3, 225.51 -3.34 M384 134.43 C328.65 82.79, 269.86 34.61, 225.51 -3.34 M383.93 113.17 C330.75 71.58, 275.47 24.26, 249.59 -3.61 M383.93 113.17 C339.95 77.75, 296.71 38.59, 249.59 -3.61 M383.86 91.91 C360.3 69.65, 334.17 50.02, 274.43 -3.22 M383.86 91.91 C346.77 56.72, 309.86 25.58, 274.43 -3.22 M383.79 70.65 C364.28 51.98, 349.92 41.19, 298.51 -3.49 M383.79 70.65 C365.93 55.22, 349.74 39.68, 298.51 -3.49 M379.19 45.45 C361.97 30.28, 338.37 15.56, 323.34 -3.1 M379.19 45.45 C367.35 36.13, 354.04 23.16, 323.34 -3.1" stroke="#4c6ef5" stroke-width="2" fill="none"></path><path d="M51.77 0 M51.77 0 C159.53 -2.7, 260.59 -2, 327.18 0 M51.77 0 C147.61 1.04, 246.8 2.94, 327.18 0 M327.18 0 C365.57 1.79, 378.85 17.5, 378.95 51.77 M327.18 0 C361.1 0.24, 378.04 15.6, 378.95 51.77 M378.95 51.77 C377.23 76.61, 376.52 100.21, 378.95 155.32 M378.95 51.77 C377.32 88.83, 378.25 121.41, 378.95 155.32 M378.95 155.32 C376.03 192, 360.77 205.37, 327.18 207.09 M378.95 155.32 C382.63 192.87, 358.22 210.62, 327.18 207.09 M327.18 207.09 C214.61 206.98, 109.05 208.19, 51.77 207.09 M327.18 207.09 C250.04 202.42, 169.42 203.29, 51.77 207.09 M51.77 207.09 C16.98 205.84, 0.44 191.19, 0 155.32 M51.77 207.09 C19.39 206.63, -0.97 189.25, 0 155.32 M0 155.32 C0.92 116.68, -2.63 80.7, 0 51.77 M0 155.32 C0.23 119.31, 2.59 78.22, 0 51.77 M0 51.77 C-1.32 17.93, 17.15 0.5, 51.77 0 M0 51.77 C0.66 16.97, 13.08 2.15, 51.77 0" stroke="#2b8a3e" stroke-width="4" fill="none"></path></g><g stroke-linecap="round"><g transform="translate(1025.5658204201982 244.2453665253899) rotate(326.4271731434288 -26.920462743603196 43.26610734216672)"><path d="M-0.83 -1.72 C-10.32 12.65, -47.27 70.8, -56.74 85.53 M3.91 3.52 C-5.76 18.29, -47.3 73.93, -57.75 88.25" stroke="#5f3dc4" stroke-width="4" fill="none"></path></g><g transform="translate(1025.5658204201982 244.2453665253899) rotate(326.4271731434288 -26.920462743603196 43.26610734216672)"><path d="M-51.73 62.71 C-54.4 70.13, -55.42 75.79, -58.71 90.85 M-48.23 60.31 C-51.86 65.43, -53.78 71.8, -56.56 87.35" stroke="#5f3dc4" stroke-width="4" fill="none"></path></g><g transform="translate(1025.5658204201982 244.2453665253899) rotate(326.4271731434288 -26.920462743603196 43.26610734216672)"><path d="M-35.21 74.89 C-42.87 78.48, -48.94 80.42, -58.71 90.85 M-31.71 72.49 C-39.29 74.48, -45.12 77.97, -56.56 87.35" stroke="#5f3dc4" stroke-width="4" fill="none"></path></g></g><g stroke-linecap="round" transform="translate(856.0423703345742 354.61195350750654) rotate(0 143 140.00000000000003)"><path d="M79.91 13.57 C91.91 5.17, 109.73 4.59, 124.92 2.77 C140.1 0.95, 155.88 0.17, 171.04 2.63 C186.2 5.09, 202.18 10.11, 215.89 17.53 C229.59 24.94, 243.07 35.17, 253.28 47.12 C263.49 59.06, 271.8 74.61, 277.16 89.19 C282.51 103.78, 285.01 119.75, 285.38 134.64 C285.76 149.53, 283.67 164.42, 279.4 178.52 C275.12 192.62, 268.74 206.72, 259.71 219.25 C250.68 231.78, 237.78 244.86, 225.22 253.73 C212.66 262.6, 198.88 268.32, 184.34 272.47 C169.8 276.62, 153.63 278.89, 137.98 278.62 C122.33 278.34, 104.74 276.26, 90.46 270.8 C76.18 265.34, 64.19 255.43, 52.29 245.84 C40.39 236.25, 27.38 225.95, 19.04 213.25 C10.7 200.54, 5.34 184.35, 2.22 169.61 C-0.9 154.86, -1.64 139.7, 0.3 124.76 C2.25 109.82, 7.09 93.76, 13.88 79.95 C20.67 66.15, 27.81 53.97, 41.04 41.9 C54.27 29.84, 82.42 13.25, 93.27 7.55 C104.12 1.85, 105.77 5.27, 106.15 7.7 M229.57 26.01 C242.91 33.02, 255.45 46.44, 264 59.42 C272.54 72.4, 277.07 89.07, 280.84 103.9 C284.61 118.74, 287.86 133.26, 286.64 148.42 C285.41 163.58, 280.09 180.65, 273.48 194.84 C266.88 209.03, 257.23 222.52, 247.02 233.56 C236.82 244.59, 224.89 253.41, 212.26 261.06 C199.62 268.71, 186.52 276.66, 171.21 279.47 C155.89 282.29, 135.88 280.88, 120.38 277.95 C104.89 275.02, 91.55 269.21, 78.24 261.89 C64.93 254.58, 51.28 244.48, 40.53 234.08 C29.77 223.68, 20.39 213.16, 13.73 199.5 C7.07 185.85, 2.25 167.13, 0.55 152.13 C-1.15 137.14, -0.19 124.32, 3.54 109.52 C7.26 94.72, 14.4 76.28, 22.88 63.35 C31.36 50.42, 42.6 40.7, 54.4 31.95 C66.19 23.2, 79.34 15.94, 93.66 10.86 C107.99 5.79, 125.19 1.65, 140.34 1.5 C155.5 1.34, 169.72 5.53, 184.59 9.93 C199.46 14.33, 222.69 24.44, 229.54 27.89 C236.39 31.34, 227.07 28.92, 225.7 30.64" stroke="#c92a2a" stroke-width="4" fill="none"></path></g><g stroke-linecap="round"><g transform="translate(1188.0833340671932 487.31286529314576) rotate(0 179.04216274031103 122.2383412360397)"><path d="M0.97 0.53 C60.6 41.18, 298.78 204.02, 358.06 244.71 M0.02 -0.23 C59.55 39.97, 298.36 201.7, 357.63 242.76" stroke="#e67700" stroke-width="4" fill="none"></path></g><g transform="translate(1188.0833340671932 487.31286529314576) rotate(0 179.04216274031103 122.2383412360397)"><path d="M329.45 236.96 C338.67 236.76, 348.1 241.6, 356.07 241.99 M329.06 234.33 C339.8 238.53, 348.97 241.64, 356.77 242.26" stroke="#e67700" stroke-width="4" fill="none"></path></g><g transform="translate(1188.0833340671932 487.31286529314576) rotate(0 179.04216274031103 122.2383412360397)"><path d="M341.03 220.02 C346.58 225.45, 352.22 235.83, 356.07 241.99 M340.64 217.39 C347.2 227.74, 352.16 237, 356.77 242.26" stroke="#e67700" stroke-width="4" fill="none"></path></g></g><g stroke-linecap="round" transform="translate(1586.5899272510587 732.5311293482375) rotate(0 192.63621628468036 86.8123432633372)"><path d="M43.41 0 M43.41 0 C127.6 3.51, 207.99 -0.5, 341.87 0 M43.41 0 C113.63 -0.17, 183.36 -0.74, 341.87 0 M341.87 0 C368.2 -2.71, 382.46 11.29, 385.27 43.41 M341.87 0 C373.17 4.3, 388.24 11.11, 385.27 43.41 M385.27 43.41 C387.28 69.56, 384.75 89.48, 385.27 130.22 M385.27 43.41 C383.98 71.58, 385.42 97.31, 385.27 130.22 M385.27 130.22 C384.24 158.6, 370.69 175.11, 341.87 173.62 M385.27 130.22 C380.89 162.58, 369.81 171.77, 341.87 173.62 M341.87 173.62 C260.39 177.22, 180.26 175.54, 43.41 173.62 M341.87 173.62 C250.54 174.57, 160.07 175.2, 43.41 173.62 M43.41 173.62 C14.45 174.8, 2.39 161.48, 0 130.22 M43.41 173.62 C17.22 174.16, 3.66 157.14, 0 130.22 M0 130.22 C1.83 110.41, -1.95 90.42, 0 43.41 M0 130.22 C-3.1 109.31, 0.48 92.73, 0 43.41 M0 43.41 C3.11 12.48, 11.47 0.35, 43.41 0 M0 43.41 C-1.92 17.86, 11.6 1.6, 43.41 0" stroke="#e67700" stroke-width="4" fill="none"></path></g><g stroke-linecap="round"><g transform="translate(2061.0497171025336 741.9479918785908) rotate(0 -0.9874249132742534 101.57062961245146)"><path d="M1.31 -1.91 C1.43 31.85, -0.92 170.9, -1.09 205.05 M-1.42 3.23 C-1.5 37.39, -3.39 167.16, -3.29 200.93" stroke="#e67700" stroke-width="4" fill="none"></path></g></g><g stroke-opacity="0.9" fill-opacity="0.9" stroke-linecap="round" transform="translate(2106.203555390545 753.055147455847) rotate(0 15.666022651210824 19.635987469915847)"><path d="M24.86 6.15 C27.11 8.87, 28.9 14.24, 29.76 18.24 C30.61 22.23, 31.39 26.88, 30 30.13 C28.61 33.39, 24.61 36.57, 21.42 37.79 C18.23 39.01, 14.27 38.59, 10.86 37.45 C7.45 36.32, 3.02 34.36, 0.96 30.97 C-1.1 27.57, -2.54 21.42, -1.52 17.08 C-0.49 12.74, 3.91 8.03, 7.12 4.95 C10.32 1.87, 13.96 -3.93, 17.72 -1.41 C21.48 1.12, 28.07 14.31, 29.65 20.11 C31.24 25.91, 27.46 33.44, 27.22 33.42 M23.96 1.8 C27.19 3.19, 27.99 8.95, 29.29 13.18 C30.59 17.4, 32.2 23.5, 31.76 27.15 C31.32 30.8, 29.35 33.52, 26.67 35.08 C23.99 36.65, 19.36 36.78, 15.69 36.53 C12.02 36.29, 7.21 35.74, 4.63 33.62 C2.06 31.5, 0.84 27.96, 0.27 23.81 C-0.3 19.66, -1.07 12.46, 1.21 8.73 C3.5 4.99, 10.42 2.29, 13.98 1.41 C17.53 0.52, 20.97 2.96, 22.53 3.41 C24.1 3.86, 23.65 4.29, 23.36 4.13" stroke="none" stroke-width="0" fill="#fd7e14"></path><path d="M9.47 0.96 C12.6 -1.22, 18.46 -0.72, 21.61 0.38 C24.77 1.47, 26.47 3.73, 28.4 7.52 C30.33 11.31, 33.14 18.87, 33.19 23.13 C33.24 27.4, 31.52 30.51, 28.7 33.11 C25.87 35.72, 19.79 38.48, 16.22 38.77 C12.66 39.05, 9.97 36.94, 7.29 34.82 C4.61 32.69, 1.34 30.19, 0.15 26.04 C-1.05 21.88, -1.59 14.11, 0.1 9.88 C1.79 5.66, 8.37 1.99, 10.27 0.7 C12.18 -0.59, 11.58 1.87, 11.54 2.14 M13.46 -0.54 C16.46 -1.54, 19.9 1.66, 22.7 3.43 C25.51 5.21, 28.92 6.63, 30.28 10.09 C31.65 13.55, 31.35 19.97, 30.88 24.19 C30.42 28.4, 30.51 33.23, 27.49 35.38 C24.48 37.52, 16.88 37.48, 12.8 37.04 C8.72 36.61, 5.37 35.08, 3.03 32.76 C0.69 30.45, -0.7 27.16, -1.23 23.16 C-1.75 19.16, -1.89 12.06, -0.12 8.76 C1.65 5.46, 7.63 4.97, 9.4 3.35 C11.17 1.72, 9.69 -0.9, 10.49 -0.98" stroke="#e67700" stroke-width="1" fill="none"></path></g><g stroke-opacity="0.9" fill-opacity="0.9" transform="translate(2175.9345605412864 741.2212898687424) rotate(0 86.63131304483477 36.56000367029725)"><text x="0" y="51.1200073405945" font-family="Virgil, Segoe UI Emoji" font-size="57.22435357090004px" fill="#e67700" text-anchor="start" style="white-space: pre;" direction="ltr">GET :</text></g><g transform="translate(2385.671309864719 729.6929914882185) rotate(0 240.31194568641467 62.30309702981123)"><text x="0" y="44.30309702981122" font-family="Virgil, Segoe UI Emoji" font-size="49.29475808952096px" fill="#e67700" text-anchor="start" style="white-space: pre;" direction="ltr">if Admin : gets all </text><text x="0" y="106.60619405962244" font-family="Virgil, Segoe UI Emoji" font-size="49.29475808952096px" fill="#e67700" text-anchor="start" style="white-space: pre;" direction="ltr">          users list</text></g><g stroke-opacity="0.9" fill-opacity="0.9" stroke-linecap="round" transform="translate(2105.773931331666 910.2766962854537) rotate(0 17.446957264994353 18.905208829001765)"><path d="M14.07 2.12 C17.32 0.87, 20.13 1.97, 23.3 3.02 C26.47 4.07, 31.5 5.26, 33.09 8.42 C34.69 11.59, 33.9 18.04, 32.89 21.99 C31.87 25.94, 29.55 29.44, 27.03 32.12 C24.52 34.8, 21.21 38.13, 17.79 38.08 C14.38 38.03, 9.2 34.47, 6.56 31.83 C3.93 29.19, 2.38 25.97, 2 22.23 C1.61 18.48, -0.37 11.7, 4.23 9.33 C8.83 6.97, 24.87 4.44, 29.62 8.04 C34.36 11.65, 32.94 30.97, 32.68 30.98 M19.94 3.16 C23.55 4.58, 28.68 8.31, 31.48 11.87 C34.28 15.43, 36.88 21.13, 36.72 24.54 C36.57 27.95, 34.11 29.85, 30.57 32.32 C27.03 34.8, 19.69 39.21, 15.48 39.39 C11.28 39.56, 8.24 36.54, 5.32 33.36 C2.39 30.19, -1.48 24.24, -2.05 20.33 C-2.62 16.42, -0.11 13.5, 1.87 9.88 C3.86 6.27, 6.44 0.06, 9.87 -1.35 C13.3 -2.76, 20.54 0.6, 22.45 1.43 C24.36 2.27, 21.04 3.48, 21.35 3.65" stroke="none" stroke-width="0" fill="#fd7e14"></path><path d="M12.09 1.1 C15.66 -1.03, 19.77 -2.18, 23.21 -0.99 C26.65 0.2, 30.55 4.56, 32.72 8.25 C34.89 11.95, 36.59 17.23, 36.24 21.19 C35.88 25.16, 33.77 29.08, 30.57 32.04 C27.37 35, 20.98 38.64, 17.03 38.97 C13.07 39.3, 9.43 36.58, 6.82 34.04 C4.22 31.49, 2.45 27.48, 1.37 23.7 C0.29 19.93, -2.25 15.19, 0.35 11.41 C2.95 7.63, 13.24 2.62, 16.99 1.02 C20.73 -0.59, 22.94 1.77, 22.83 1.77 M15.56 2.66 C19.31 2.54, 25.73 2.94, 28.97 4.65 C32.22 6.37, 34.42 9.11, 35.01 12.95 C35.59 16.79, 34.31 24.1, 32.48 27.69 C30.65 31.28, 28 33.25, 24.02 34.5 C20.05 35.76, 12.18 36.03, 8.65 35.21 C5.11 34.39, 4.11 33.25, 2.81 29.6 C1.52 25.96, -0.01 17.6, 0.89 13.36 C1.78 9.12, 5.73 6.25, 8.2 4.15 C10.66 2.06, 13.86 1.71, 15.65 0.79 C17.44 -0.12, 18.73 -1.09, 18.92 -1.34" stroke="#e67700" stroke-width="1" fill="none"></path></g><g transform="translate(2185.9973444083435 903.4463092443225) rotate(0 324.95458884576817 104.25943482873589)"><text x="0" y="48.50628988582396" font-family="Virgil, Segoe UI Emoji" font-size="54.793279618021785px" fill="#e67700" text-anchor="start" style="white-space: pre;" direction="ltr">POST : create user by </text><text x="0" y="118.01257977164792" font-family="Virgil, Segoe UI Emoji" font-size="54.793279618021785px" fill="#e67700" text-anchor="start" style="white-space: pre;" direction="ltr">        username and </text><text x="0" y="187.5188696574719" font-family="Virgil, Segoe UI Emoji" font-size="54.793279618021785px" fill="#e67700" text-anchor="start" style="white-space: pre;" direction="ltr">        password .</text></g><g stroke-linecap="round"><g transform="translate(1719.5138244442696 930.9105328560438) rotate(0 -0.7981145566701571 152.00554348151366)"><path d="M-2.67 2.02 C-2.79 52.49, -0.21 250.57, -0.48 301.06 M1.07 0.65 C0.66 51.55, -2.13 253.44, -2.14 303.37" stroke="#087f5b" stroke-width="4" fill="none"></path></g><g transform="translate(1719.5138244442696 930.9105328560438) rotate(0 -0.7981145566701571 152.00554348151366)"><path d="M-9.29 276.61 C-12.92 280.05, -4.27 295.6, -1.78 301.12 M-11.92 275.29 C-7.93 284.4, -7.45 289.9, -0.72 303.24" stroke="#087f5b" stroke-width="4" fill="none"></path></g><g transform="translate(1719.5138244442696 930.9105328560438) rotate(0 -0.7981145566701571 152.00554348151366)"><path d="M11.23 276.78 C1.29 279.77, 3.63 295.27, -1.78 301.12 M8.6 275.45 C6.5 284.9, 0.88 290.36, -0.72 303.24" stroke="#087f5b" stroke-width="4" fill="none"></path></g></g><g stroke-linecap="round" transform="translate(1620.5656096086163 1256.8494432855975) rotate(0 125 82)"><path d="M41 0 M41 0 C94.6 1.86, 151.14 -1.99, 209 0 M41 0 C99.86 -1.57, 161.71 -1.74, 209 0 M209 0 C237.72 0.1, 249.65 15.8, 250 41 M209 0 C240.23 0.66, 251.89 16.39, 250 41 M250 41 C249.33 69.67, 245.04 98.09, 250 123 M250 41 C251.12 62.2, 250.43 86.09, 250 123 M250 123 C248.99 153.44, 232.79 167.88, 209 164 M250 123 C251.76 154.27, 233.68 162.13, 209 164 M209 164 C174.44 162.75, 136.27 166.55, 41 164 M209 164 C155.06 165.35, 103.7 164.97, 41 164 M41 164 C11.5 166.19, 1.14 149.72, 0 123 M41 164 C15.2 163.96, 4.13 149.14, 0 123 M0 123 C-0.87 93.93, -1.07 65.09, 0 41 M0 123 C0.95 99.14, -2.38 77.11, 0 41 M0 41 C-3.68 15.87, 15.16 3.28, 41 0 M0 41 C-0.32 12.28, 10.37 -1.16, 41 0" stroke="#087f5b" stroke-width="4" fill="none"></path></g><g stroke-linecap="round"><g transform="translate(1935.3746085898547 1252.034143998204) rotate(355.501912219256 -6.749664870237666 109.42984133653022)"><path d="M-1.52 1.53 C-4.27 37.33, -12.4 179.83, -14.55 215.57 M2.85 -0.11 C-0.38 36.07, -13.26 182.44, -16.35 218.96" stroke="#087f5b" stroke-width="4" fill="none"></path></g></g><g transform="translate(1961.5301444518623 1333.5536105360457) rotate(0 177.4999999999999 31.5)"><text x="0" y="44" font-family="Virgil, Segoe UI Emoji" font-size="49.56993444225542px" fill="#087f5b" text-anchor="start" style="white-space: pre;" direction="ltr">if authorized :</text></g><g stroke-linecap="round"><g transform="translate(2389.338155769108 1283.8421770198167) rotate(355.501912219256 -6.370089396112917 81.74334976848479)"><path d="M-0.09 -1.33 C-1.66 25.88, -9.17 134.45, -10.59 161.73 M-3.58 4.12 C-5.4 31.86, -11.73 137.96, -12.65 164.82" stroke="#087f5b" stroke-width="4" fill="none"></path></g></g><g stroke-opacity="0.9" fill-opacity="0.9" stroke-linecap="round" transform="translate(2435.78037315084 1277.2276920569896) rotate(0 7.804356858900519 9.871914645397851)"><path d="M11.11 3.24 C12.33 4.27, 13.12 4.15, 13.88 6.06 C14.64 7.96, 16.04 12.45, 15.67 14.69 C15.31 16.93, 13.31 18.83, 11.69 19.48 C10.07 20.14, 7.72 19.44, 5.96 18.6 C4.21 17.76, 2.15 16.02, 1.15 14.45 C0.15 12.87, -0.33 11.04, -0.03 9.15 C0.27 7.26, 1.82 4.48, 2.93 3.09 C4.04 1.69, 4.92 0.61, 6.61 0.8 C8.3 0.99, 11.77 2.81, 13.06 4.23 C14.35 5.65, 14.27 9.29, 14.33 9.32 M3.79 -1.77 C5.51 -2.35, 11.29 1.52, 12.79 2.36 C14.28 3.21, 11.99 1.9, 12.76 3.31 C13.54 4.72, 17.86 8.75, 17.43 10.82 C17 12.88, 11.54 14.29, 10.18 15.7 C8.82 17.11, 10.93 19.47, 9.29 19.27 C7.65 19.07, 1.85 16.31, 0.33 14.5 C-1.2 12.69, 0.06 9.59, 0.13 8.41 C0.2 7.23, 0.11 8.49, 0.76 7.41 C1.41 6.33, 3.57 3.37, 4.05 1.91 C4.54 0.46, 2.93 -1.45, 3.66 -1.32" stroke="none" stroke-width="0" fill="#12b886"></path><path d="M12.33 1.45 C13.34 3.02, 14.8 6.69, 14.97 9.35 C15.13 12, 14.37 15.39, 13.31 17.35 C12.26 19.32, 9.96 21.01, 8.63 21.14 C7.29 21.26, 6.66 19.03, 5.31 18.09 C3.96 17.15, 1.14 17.56, 0.55 15.48 C-0.04 13.41, 1.12 8.19, 1.78 5.65 C2.44 3.11, 3.66 1.16, 4.52 0.25 C5.38 -0.66, 5.28 -0.48, 6.95 0.19 C8.63 0.87, 12.85 3.14, 14.56 4.28 C16.27 5.42, 17.14 6.71, 17.22 7.05 M5.51 0.61 C6.86 0.94, 8.43 3.42, 10.39 4.6 C12.34 5.79, 16.08 6.16, 17.24 7.73 C18.4 9.3, 18.55 12.17, 17.36 14.02 C16.16 15.88, 11.68 17.8, 10.07 18.88 C8.47 19.95, 8.77 21.5, 7.72 20.46 C6.67 19.42, 4.94 14.89, 3.79 12.64 C2.64 10.39, 1.03 9.12, 0.83 6.96 C0.63 4.8, 1.58 1.13, 2.59 -0.32 C3.59 -1.78, 6.29 -1.48, 6.85 -1.76 C7.41 -2.03, 5.36 -2.33, 5.96 -1.98" stroke="#087f5b" stroke-width="1" fill="none"></path></g><g stroke-opacity="0.9" fill-opacity="0.9" stroke-linecap="round" transform="translate(2451.505081299961 1434.140606855063) rotate(0 7.804356858900519 9.871914645397851)"><path d="M12.22 0.91 C13.78 2.03, 15.67 4.4, 16.04 6.75 C16.41 9.11, 15.3 13.1, 14.43 15.03 C13.57 16.97, 12.19 17.47, 10.84 18.35 C9.48 19.22, 7.89 20.7, 6.3 20.29 C4.72 19.88, 2.16 17.4, 1.33 15.89 C0.49 14.37, 1.16 13.53, 1.31 11.18 C1.45 8.83, 0.95 3.84, 2.2 1.78 C3.44 -0.28, 6.34 -2.21, 8.79 -1.19 C11.23 -0.18, 16.11 5.52, 16.87 7.86 C17.62 10.2, 13.65 13.27, 13.33 12.85 M4.78 3.63 C5.47 2.43, 5.62 -1.47, 6.8 -1.49 C7.98 -1.51, 10.3 1.72, 11.85 3.52 C13.39 5.32, 15.72 6.85, 16.06 9.31 C16.4 11.77, 14.97 16.5, 13.91 18.27 C12.84 20.04, 11.3 19.59, 9.66 19.91 C8.02 20.22, 5.95 20.8, 4.07 20.16 C2.19 19.52, -0.65 18.51, -1.59 16.08 C-2.54 13.65, -2.95 7.89, -1.6 5.57 C-0.25 3.25, 5.61 2.6, 6.52 2.15 C7.43 1.7, 4.57 3.1, 3.86 2.88" stroke="none" stroke-width="0" fill="#12b886"></path><path d="M11.3 3.43 C12.7 4.61, 14.88 4.63, 15.15 6.5 C15.42 8.37, 13.98 12.62, 12.93 14.66 C11.88 16.7, 9.82 18.13, 8.88 18.73 C7.93 19.33, 8.38 19.07, 7.26 18.24 C6.13 17.41, 3.54 15.07, 2.13 13.73 C0.72 12.39, -1.43 11.89, -1.2 10.19 C-0.97 8.48, 2.34 5.47, 3.53 3.5 C4.72 1.53, 4 -1.64, 5.93 -1.64 C7.86 -1.64, 13.85 2.29, 15.1 3.5 C16.36 4.71, 13.61 5.87, 13.45 5.64 M11.37 -2.7 C13.1 -2.53, 14.72 1.73, 15.33 4 C15.95 6.28, 15.82 8.51, 15.05 10.93 C14.28 13.36, 11.64 16.97, 10.71 18.54 C9.78 20.11, 10.25 20.07, 9.48 20.37 C8.71 20.66, 7.86 21.5, 6.09 20.33 C4.32 19.15, -0.06 15.56, -1.13 13.29 C-2.19 11.02, -0.88 9.03, -0.32 6.69 C0.24 4.35, 0.3 0.12, 2.23 -0.76 C4.17 -1.65, 10.33 1.49, 11.3 1.4 C12.27 1.31, 8.52 -1.08, 8.07 -1.3" stroke="#087f5b" stroke-width="1" fill="none"></path></g><g transform="translate(2491.8627726190985 1257.8160750363543) rotate(0 227.5 62.5)"><text x="0" y="44.5" font-family="Virgil, Segoe UI Emoji" font-size="49.56993444225542px" fill="#087f5b" text-anchor="start" style="white-space: pre;" direction="ltr">GET :  gets your </text><text x="0" y="107" font-family="Virgil, Segoe UI Emoji" font-size="49.56993444225542px" fill="#087f5b" text-anchor="start" style="white-space: pre;" direction="ltr">        profile .</text></g><g transform="translate(2506.050567354674 1419.2956046675201) rotate(0 270.569225497311 62.6508893645173)"><text x="0" y="44.65088936451731" font-family="Virgil, Segoe UI Emoji" font-size="49.569934442255445px" fill="#087f5b" text-anchor="start" style="white-space: pre;" direction="ltr">PUT :  updated your </text><text x="0" y="107.30177872903462" font-family="Virgil, Segoe UI Emoji" font-size="49.569934442255445px" fill="#087f5b" text-anchor="start" style="white-space: pre;" direction="ltr">        profile .</text></g><g stroke-linecap="round"><g transform="translate(809.800756411986 489.6605067394272) rotate(1.6816128611592605 -191.5651135032544 118.12963529136587)"><path d="M0.33 -0.46 C-63.53 39.05, -318.63 198.5, -382.67 238 M-0.95 -1.74 C-65 37.36, -320.04 196.5, -383.46 236.4" stroke="#0b7285" stroke-width="4" fill="none"></path></g><g transform="translate(809.800756411986 489.6605067394272) rotate(1.6816128611592605 -191.5651135032544 118.12963529136587)"><path d="M-365.77 213.22 C-369.52 219.38, -378.3 230.34, -383.32 236.52 M-364.48 212.05 C-370.75 220.28, -378.64 229.85, -383.35 236.66" stroke="#0b7285" stroke-width="4" fill="none"></path></g><g transform="translate(809.800756411986 489.6605067394272) rotate(1.6816128611592605 -191.5651135032544 118.12963529136587)"><path d="M-354.88 230.61 C-362.53 230.81, -375.05 235.79, -383.32 236.52 M-353.59 229.45 C-363.5 231.67, -375.18 235.17, -383.35 236.66" stroke="#0b7285" stroke-width="4" fill="none"></path></g></g><g stroke-linecap="round" transform="translate(10 723.3685882568357) rotate(0 192.74925071919245 92.62263747044142)"><path d="M46.31 0 M46.31 0 C141.29 3.73, 242.96 2.51, 339.19 0 M46.31 0 C148.1 3.92, 252.95 3.18, 339.19 0 M339.19 0 C371.8 3.88, 381.63 11.49, 385.5 46.31 M339.19 0 C366.59 1.19, 387.49 15.84, 385.5 46.31 M385.5 46.31 C386.06 74.84, 384.09 99.04, 385.5 138.93 M385.5 46.31 C386.09 65.29, 384.48 88.66, 385.5 138.93 M385.5 138.93 C383.78 168.36, 368.13 188.94, 339.19 185.25 M385.5 138.93 C384.55 170.49, 366.58 188.38, 339.19 185.25 M339.19 185.25 C223.63 182.39, 109.56 185.49, 46.31 185.25 M339.19 185.25 C226.12 187.14, 111.11 186.58, 46.31 185.25 M46.31 185.25 C11.87 188.07, 2.48 172.98, 0 138.93 M46.31 185.25 C17.37 182.82, -4.5 173.99, 0 138.93 M0 138.93 C-1.8 110.15, -5.39 87.26, 0 46.31 M0 138.93 C0.55 105.51, 0.89 72.41, 0 46.31 M0 46.31 C3.13 17.74, 15.71 2.99, 46.31 0 M0 46.31 C4.2 10.89, 13.97 -3.94, 46.31 0" stroke="#0b7285" stroke-width="4" fill="none"></path></g><g stroke-linecap="round"><g transform="translate(470.5887224158865 825.7008732611421) rotate(269.124206447688 52.61829263615998 -2.1698711786151534)"><path d="M1.15 -1.17 C18.81 -0.78, 89.37 0.29, 106.91 0.12 M-1.67 -4.28 C15.57 -4.48, 87.15 -4.73, 104.83 -3.9" stroke="#0b7285" stroke-width="4" fill="none"></path></g></g><g transform="translate(604.8197943397513 761.1107163426229) rotate(0 301.5646432001735 60.44577650047535)"><text x="0" y="42.44577650047534" font-family="Virgil, Segoe UI Emoji" font-size="47.825229758617844px" fill="#0b7285" text-anchor="start" style="white-space: pre;" direction="ltr">POST : sends otp </text><text x="0" y="102.89155300095068" font-family="Virgil, Segoe UI Emoji" font-size="47.825229758617844px" fill="#0b7285" text-anchor="start" style="white-space: pre;" direction="ltr">        with phone number</text></g><g stroke-linecap="round"><g transform="translate(204.04499292145942 924.1862504571598) rotate(0 0.16132620970499545 154.12286309575535)"><path d="M-2.56 0.15 C-1.68 51.57, 1.61 255.65, 2.88 307.19 M1.24 -2.23 C2.01 49.72, 0.3 259.32, 0.88 310.48" stroke="#5c940d" stroke-width="4" fill="none"></path></g><g transform="translate(204.04499292145942 924.1862504571598) rotate(0 0.16132620970499545 154.12286309575535)"><path d="M-9.17 282.91 C-8.35 292.3, -3.03 293.86, 0.45 312.96 M-8.36 283.22 C-6.58 291.08, -2.19 300.37, 1.8 309.73" stroke="#5c940d" stroke-width="4" fill="none"></path></g><g transform="translate(204.04499292145942 924.1862504571598) rotate(0 0.16132620970499545 154.12286309575535)"><path d="M11.35 282.9 C7.79 291.91, 8.72 293.48, 0.45 312.96 M12.16 283.21 C7.29 291.21, 5.03 300.5, 1.8 309.73" stroke="#5c940d" stroke-width="4" fill="none"></path></g></g><g stroke-linecap="round" transform="translate(85.614579488108 1259.379670474972) rotate(0 117.5 79)"><path d="M39.5 0 M39.5 0 C80.33 3.88, 118.92 0.69, 195.5 0 M39.5 0 C72.83 4.4, 105.98 3.25, 195.5 0 M195.5 0 C220.45 2.86, 238.57 12.64, 235 39.5 M195.5 0 C226 -2.1, 235.63 16.34, 235 39.5 M235 39.5 C232.71 66.54, 236.85 87.86, 235 118.5 M235 39.5 C236.25 70.9, 234.59 99.28, 235 118.5 M235 118.5 C238.52 141.57, 221.71 155.77, 195.5 158 M235 118.5 C234.21 144.38, 219.29 155.4, 195.5 158 M195.5 158 C157.53 162.97, 122.84 158.21, 39.5 158 M195.5 158 C135.75 159.76, 74.69 158.58, 39.5 158 M39.5 158 C12.03 157.7, -2.47 143.82, 0 118.5 M39.5 158 C16.59 161.09, -2.19 146.27, 0 118.5 M0 118.5 C2.38 98.57, 2.22 75.92, 0 39.5 M0 118.5 C0.31 90.99, 1.06 63.07, 0 39.5 M0 39.5 C1.25 10.73, 12.53 -2.43, 39.5 0 M0 39.5 C4.53 11.16, 14.94 -4.31, 39.5 0" stroke="#5c940d" stroke-width="4" fill="none"></path></g><g stroke-linecap="round"><g transform="translate(393.32807689284925 1279.539950470949) rotate(357.95066441459915 -1.7097484248192814 57.6267932777065)"><path d="M-1.12 -0.1 C-1.68 19.22, -3.5 96.99, -3.91 116.45 M0.49 -1.19 C0.38 17.75, -0.68 95.47, -1.51 114.81" stroke="#5c940d" stroke-width="4" fill="none"></path></g></g><g transform="translate(497.19931655643495 1272.6207714125467) rotate(0 279.738076868029 128.24264481103592)"><text x="0" y="45.121322405517944" font-family="Virgil, Segoe UI Emoji" font-size="50.73335399117904px" fill="#5c940d" text-anchor="start" style="white-space: pre;" direction="ltr">POST : verify otp and</text><text x="0" y="109.24264481103589" font-family="Virgil, Segoe UI Emoji" font-size="50.73335399117904px" fill="#5c940d" text-anchor="start" style="white-space: pre;" direction="ltr">         gets refresh</text><text x="0" y="173.36396721655382" font-family="Virgil, Segoe UI Emoji" font-size="50.73335399117904px" fill="#5c940d" text-anchor="start" style="white-space: pre;" direction="ltr">         and create</text><text x="0" y="237.48528962207178" font-family="Virgil, Segoe UI Emoji" font-size="50.73335399117904px" fill="#5c940d" text-anchor="start" style="white-space: pre;" direction="ltr">         tokens .</text></g><g transform="translate(824.5473955856418 65.57892338844317) rotate(0 174 51)"><text x="174" y="71" font-family="Virgil, Segoe UI Emoji" font-size="80.12632071746415px" fill="#5c940d" text-anchor="middle" style="white-space: pre;" direction="ltr">Core app</text></g><g stroke-opacity="0.9" fill-opacity="0.9" stroke-linecap="round" transform="translate(553.649452875502 774.5073964747703) rotate(0 10.832057270941277 12.86410539744412)"><path d="M5.67 0.54 C7.65 -0.26, 12.96 0.52, 15.19 1.43 C17.42 2.34, 17.92 3.87, 19.06 6.01 C20.21 8.15, 22.19 11.22, 22.05 14.26 C21.92 17.29, 20.14 22.51, 18.24 24.24 C16.35 25.97, 13.4 24.83, 10.7 24.64 C8 24.44, 3.77 24.27, 2.05 23.04 C0.33 21.82, 0.54 20.23, 0.37 17.3 C0.2 14.36, -1.2 7.81, 1.02 5.45 C3.24 3.1, 10.19 2.29, 13.68 3.16 C17.17 4.03, 21.7 11, 21.97 10.67 M2 4.14 C3.16 1.89, 8.26 -1.91, 10.97 -2.47 C13.67 -3.02, 16.3 -0.87, 18.21 0.79 C20.12 2.44, 22.11 4.5, 22.44 7.46 C22.76 10.42, 21.13 15.6, 20.17 18.54 C19.21 21.49, 19.07 23.66, 16.65 25.11 C14.24 26.57, 8.05 27.69, 5.67 27.28 C3.29 26.86, 3.73 25.25, 2.38 22.63 C1.03 20.01, -2.41 15.13, -2.4 11.55 C-2.39 7.97, 1.49 1.98, 2.43 1.14 C3.38 0.31, 3.04 5.64, 3.25 6.55" stroke="none" stroke-width="0" fill="#15aabf"></path><path d="M2.4 1.05 C4.3 -0.48, 9.34 1.26, 11.73 1.63 C14.11 1.99, 15.29 1.93, 16.72 3.23 C18.15 4.54, 19.8 6.69, 20.32 9.45 C20.84 12.22, 20.71 17.04, 19.84 19.82 C18.96 22.6, 17.15 25.27, 15.07 26.12 C12.98 26.98, 9.58 26.39, 7.33 24.94 C5.09 23.49, 2.79 19.6, 1.61 17.44 C0.42 15.27, -0.99 15.02, 0.24 11.94 C1.47 8.86, 6.7 0.98, 8.99 -1.03 C11.28 -3.05, 13.95 -0.53, 14 -0.16 M16.03 2.4 C17.9 3.64, 22.92 7.13, 23.46 9.97 C24 12.81, 20.39 16.62, 19.29 19.45 C18.2 22.28, 18.8 26.17, 16.91 26.93 C15.02 27.7, 10.61 25.83, 7.94 24.04 C5.28 22.24, 2.32 18.59, 0.94 16.16 C-0.45 13.72, -1.16 11.71, -0.35 9.45 C0.47 7.18, 3.95 3.84, 5.82 2.58 C7.69 1.33, 8.72 2.2, 10.87 1.92 C13.01 1.65, 17.57 1.08, 18.69 0.93 C19.81 0.79, 17.53 0.52, 17.59 1.05" stroke="#0b7285" stroke-width="1" fill="none"></path></g><g stroke-opacity="0.9" fill-opacity="0.9" stroke-linecap="round" transform="translate(434.56959448743487 1285.6929008736097) rotate(0 16.023292208991165 17.09720833962865)"><path d="M19.68 1.89 C22.39 2.69, 25.56 6.05, 27.64 8.92 C29.71 11.79, 32.07 16, 32.14 19.11 C32.2 22.21, 30.27 24.93, 28.05 27.55 C25.82 30.18, 22.48 33.99, 18.78 34.88 C15.08 35.77, 8.76 35.2, 5.86 32.9 C2.96 30.59, 2.31 25.02, 1.38 21.05 C0.46 17.08, -1.08 12.21, 0.31 9.09 C1.71 5.98, 6.21 3.33, 9.76 2.36 C13.31 1.38, 19.5 2.87, 21.61 3.22 C23.72 3.57, 22.41 4.33, 22.41 4.45 M13.73 -1.05 C16.92 -2.22, 19.8 1.97, 22.88 3.45 C25.96 4.92, 31 4.65, 32.2 7.8 C33.41 10.95, 31.84 18.85, 30.1 22.35 C28.35 25.84, 24.05 26.74, 21.73 28.76 C19.42 30.79, 18.81 34.16, 16.21 34.49 C13.61 34.82, 8.78 33.99, 6.14 30.72 C3.49 27.45, 0.89 19.11, 0.32 14.86 C-0.24 10.62, 1.02 7.61, 2.76 5.25 C4.51 2.89, 9.56 1.8, 10.77 0.72 C11.99 -0.36, 9.87 -1.46, 10.04 -1.23" stroke="none" stroke-width="0" fill="#12b886"></path><path d="M17.33 -1.9 C20.97 -2.36, 24.62 -0.32, 27.21 2.35 C29.8 5.02, 32.68 9.96, 32.88 14.11 C33.08 18.27, 30.09 24.02, 28.43 27.29 C26.77 30.57, 25.89 32.76, 22.94 33.75 C19.98 34.73, 13.85 34.45, 10.71 33.2 C7.56 31.96, 5.59 29.5, 4.07 26.28 C2.55 23.06, 1.46 17.78, 1.6 13.9 C1.74 10.03, 1.5 5.28, 4.89 3.04 C8.27 0.79, 18.68 0.05, 21.91 0.41 C25.14 0.77, 24.56 5.03, 24.25 5.19 M4.94 6.97 C6.83 3.74, 10.12 1.06, 12.71 0.12 C15.3 -0.82, 17.68 -0.61, 20.48 1.33 C23.28 3.26, 28.19 8.02, 29.52 11.72 C30.84 15.41, 29.37 20.16, 28.43 23.51 C27.49 26.87, 25.99 29.89, 23.89 31.83 C21.79 33.77, 18.64 35.56, 15.84 35.15 C13.05 34.73, 9.73 32.17, 7.13 29.34 C4.53 26.51, 0.39 22.38, 0.23 18.18 C0.06 13.98, 5.57 5.73, 6.14 4.13 C6.72 2.54, 3.56 7.59, 3.67 8.62" stroke="#5c940d" stroke-width="1" fill="none"></path></g><g transform="translate(875.9475992391593 456.77724915749513) rotate(0 123.5 33.50000000000003)"><text x="123.5" y="47" font-family="Virgil, Segoe UI Emoji" font-size="52.564265725835824px" fill="#c92a2a" text-anchor="middle" style="white-space: pre;" direction="ltr">api/auth/</text></g><g transform="translate(40.955336695104904 789.2436385476415) rotate(0 165.5 30.5)"><text x="165.5" y="43" font-family="Virgil, Segoe UI Emoji" font-size="48.03599779987738px" fill="#0b7285" text-anchor="middle" style="white-space: pre;" direction="ltr">create/token/</text></g><g transform="translate(1669.2486861140646 779.5180590016143) rotate(0 99.5 40)"><text x="99.5" y="56" font-family="Virgil, Segoe UI Emoji" font-size="63.3865555504038px" fill="#e67700" text-anchor="middle" style="white-space: pre;" direction="ltr">users/</text></g><g transform="translate(156.1825311523287 1292.5281819577078) rotate(0 67.5 40)"><text x="67.5" y="56" font-family="Virgil, Segoe UI Emoji" font-size="63.37445449466182px" fill="#5c940d" text-anchor="middle" style="white-space: pre;" direction="ltr">otp/</text></g><g transform="translate(1691.4258348637145 1306.9400725942064) rotate(0 53.5 40)"><text x="53.5" y="56" font-family="Virgil, Segoe UI Emoji" font-size="63.37445449466182px" fill="#087f5b" text-anchor="middle" style="white-space: pre;" direction="ltr">me/</text></g></svg>