<svg version="1.1" xmlns="http://www.w3.org/2000/svg" viewBox="0 0 2832.1878061301495 1896.0617084692412" width="8496.563418390448" height="5688.185125407724">
  <!-- svg-source:excalidraw -->
  
  <defs>
    <style>
      @font-face {
        font-family: "Virgil";
        src: url("https://excalidraw.com/Virgil.woff2");
      }
      @font-face {
        font-family: "Cascadia";
        src: url("https://excalidraw.com/Cascadia.woff2");
      }
    </style>
  </defs>
  <g stroke-opacity="0.6" fill-opacity="0.6" stroke-linecap="round" transform="translate(1036.9776496664117 237.1444363684197) rotate(0 147.44140625 77.12890625)"><path d="M9.61 9.68 C9.61 9.68, 9.61 9.68, 9.61 9.68 M9.61 9.68 C9.61 9.68, 9.61 9.68, 9.61 9.68 M7.91 36.02 C19.29 28.19, 25.21 15.37, 38.74 0.55 M7.91 36.02 C21.04 21.58, 31.17 9.54, 38.74 0.55 M8.17 60.11 C18.66 43.73, 34 33.02, 60 0.48 M8.17 60.11 C26.04 40.19, 45.78 17.68, 60 0.48 M7.78 84.94 C27.54 65.17, 42.04 39.33, 81.26 0.41 M7.78 84.94 C37.55 50.26, 67.63 18.45, 81.26 0.41 M8.05 109.02 C39.43 74.8, 67.92 40.45, 102.52 0.35 M8.05 109.02 C36.4 74.1, 68.19 40.12, 102.52 0.35 M8.97 132.35 C57.26 81.77, 101.81 30.51, 123.78 0.28 M8.97 132.35 C53.37 84.03, 98.84 31.89, 123.78 0.28 M15.8 148.89 C46.33 115.9, 76.26 78.49, 145.04 0.21 M15.8 148.89 C62.56 95.55, 109.81 39.11, 145.04 0.21 M33.12 153.34 C87.5 98.71, 137.83 34.88, 166.3 0.14 M33.12 153.34 C78 104.14, 122.67 54, 166.3 0.14 M47.17 161.58 C88.64 110.54, 134.54 63.81, 187.56 0.07 M47.17 161.58 C90.28 116.48, 129.4 68.19, 187.56 0.07 M68.43 161.51 C109.68 114.88, 150.52 68.52, 208.82 0 M68.43 161.51 C118.7 102.7, 167.14 46.85, 208.82 0 M89.69 161.44 C120.64 129.34, 146.8 99.02, 229.43 0.69 M89.69 161.44 C129.38 116.93, 170.31 72.87, 229.43 0.69 M110.95 161.37 C163.75 102, 215.07 37.61, 250.69 0.62 M110.95 161.37 C153.84 107.32, 197.15 59.08, 250.69 0.62 M132.21 161.3 C173.7 114.23, 213.22 75.33, 265.39 8.1 M132.21 161.3 C188.19 99, 238.99 36.26, 265.39 8.1 M152.81 161.99 C204.74 101.67, 255.9 46.3, 284.68 10.29 M152.81 161.99 C179.25 130.2, 207.58 98.17, 284.68 10.29 M174.07 161.92 C204.55 125.73, 240.13 94.1, 296.75 20.79 M174.07 161.92 C214.27 115.47, 253.06 69.99, 296.75 20.79 M195.33 161.85 C214.88 132.95, 240.19 114.42, 303.58 37.32 M195.33 161.85 C229.4 122.2, 269.8 77.07, 303.58 37.32 M216.59 161.78 C240.84 135.72, 262.15 111.87, 303.85 61.4 M216.59 161.78 C249.47 124.01, 280.7 83.64, 303.85 61.4 M237.85 161.71 C257.19 134.83, 284.71 105.69, 303.46 86.24 M237.85 161.71 C262.19 132.17, 287.29 100.05, 303.46 86.24 M261.74 158.62 C267.67 149.19, 278.9 134.13, 297.16 117.87 M261.74 158.62 C271.6 147.05, 284.27 135.34, 297.16 117.87 M15.05 148.83 C15.05 148.83, 15.05 148.83, 15.05 148.83 M15.05 148.83 C15.05 148.83, 15.05 148.83, 15.05 148.83 M41.4 150.53 C29.19 143.42, 22.86 135.01, 5.17 119.04 M41.4 150.53 C29.4 142.34, 20.35 132.48, 5.17 119.04 M66.24 150.92 C49.47 130.56, 24.74 114.11, 5.1 97.78 M66.24 150.92 C48.61 133.34, 27.14 116.14, 5.1 97.78 M90.32 150.65 C68.75 130.57, 50.64 119.98, 5.04 76.52 M90.32 150.65 C60.64 122.65, 29.32 96.49, 5.04 76.52 M115.15 151.04 C88.52 128.25, 59.28 103.68, 5.72 55.91 M115.15 151.04 C72.14 114.07, 30.12 78.59, 5.72 55.91 M139.24 150.77 C115.65 123.06, 87.19 100.19, 5.65 34.65 M139.24 150.77 C93.02 109.06, 40.02 64.77, 5.65 34.65 M163.32 150.51 C130.75 121.38, 91.89 88.54, 6.34 14.05 M163.32 150.51 C109.85 106.36, 57.46 57.66, 6.34 14.05 M188.15 150.9 C128.81 93.77, 60.64 36.62, 16.84 1.97 M188.15 150.9 C154.39 119.17, 121.74 89.71, 16.84 1.97 M212.24 150.63 C175.42 122.41, 137.64 85.54, 38.65 -0.26 M212.24 150.63 C158.36 102.73, 105.61 56.13, 38.65 -0.26 M237.07 151.02 C198.64 116.7, 166.26 89.19, 63.49 0.13 M237.07 151.02 C170.92 96.99, 105.76 39.65, 63.49 0.13 M260.4 150.1 C216.4 115, 164.14 69.84, 87.57 -0.14 M260.4 150.1 C199.6 95.82, 133.75 41.76, 87.57 -0.14 M281.46 147.21 C218.91 94.48, 160.07 43.14, 111.65 -0.4 M281.46 147.21 C240.32 110.95, 197.92 75.59, 111.65 -0.4 M292.71 135.79 C255.86 102.14, 222.53 72.13, 136.49 -0.01 M292.71 135.79 C244.27 95.74, 193.84 54.38, 136.49 -0.01 M296.42 117.81 C251 81.3, 208.72 45.95, 160.57 -0.28 M296.42 117.81 C263.77 94.36, 233.33 67.15, 160.57 -0.28 M304.65 103.77 C265.42 66.67, 223.85 37.2, 185.41 0.11 M304.65 103.77 C270.56 75.14, 239.44 47.6, 185.41 0.11 M304.58 82.51 C277.65 52.66, 246.58 30.47, 209.49 -0.16 M304.58 82.51 C273.28 57.01, 243.66 28.51, 209.49 -0.16 M304.51 61.25 C286.76 40.32, 266.75 20.28, 233.57 -0.42 M304.51 61.25 C281.9 44.27, 263.76 25.3, 233.57 -0.42 M304.44 39.99 C291.92 22.51, 270.41 12.55, 256.9 -1.35 M304.44 39.99 C286.8 23.48, 266.37 6.29, 256.9 -1.35" stroke="#4c6ef5" stroke-width="2" fill="none"></path><path d="M38.56 0 M38.56 0 C111.99 5.24, 190.41 5.23, 256.32 0 M38.56 0 C86.25 1.21, 136.28 3.52, 256.32 0 M256.32 0 C278.57 1.92, 297.32 13.46, 294.88 38.56 M256.32 0 C282.21 0.93, 293.5 14.9, 294.88 38.56 M294.88 38.56 C296.44 66.57, 293.31 87.62, 294.88 115.69 M294.88 38.56 C294.16 65.1, 294.64 94.17, 294.88 115.69 M294.88 115.69 C292.3 145.12, 282.71 152.16, 256.32 154.26 M294.88 115.69 C296.65 142.33, 285.16 158.71, 256.32 154.26 M256.32 154.26 C173.22 148.87, 89.8 149.86, 38.56 154.26 M256.32 154.26 C194.22 152.08, 129.19 153.08, 38.56 154.26 M38.56 154.26 C13.93 155.87, 0.54 143.36, 0 115.69 M38.56 154.26 C14.66 150.37, 1.53 137.36, 0 115.69 M0 115.69 C-1.31 85.2, 0.59 53.81, 0 38.56 M0 115.69 C1.72 91.1, 1.69 70.96, 0 38.56 M0 38.56 C-3.24 9.87, 9.85 3.32, 38.56 0 M0 38.56 C1.41 17.09, 14.96 -0.36, 38.56 0" stroke="#364fc7" stroke-width="4" fill="none"></path></g><g stroke-linecap="round"><g transform="translate(1211.8764589546363 407.2087038854397) rotate(326.4271731434288 -24.795774996159764 42.85202572191358)"><path d="M-0.83 -1.72 C-9.61 12.52, -43.73 70.11, -52.49 84.7 M3.91 3.52 C-5.05 18.15, -43.76 73.24, -53.5 87.42" stroke="#5f3dc4" stroke-width="4" fill="none"></path></g><g transform="translate(1211.8764589546363 407.2087038854397) rotate(326.4271731434288 -24.795774996159764 42.85202572191358)"><path d="M-48.31 61.65 C-50.72 69.14, -51.49 74.87, -54.46 90.02 M-44.81 59.25 C-48.25 64.44, -49.97 70.86, -52.31 86.52" stroke="#5f3dc4" stroke-width="4" fill="none"></path></g><g transform="translate(1211.8764589546363 407.2087038854397) rotate(326.4271731434288 -24.795774996159764 42.85202572191358)"><path d="M-31.45 73.35 C-38.96 77.17, -44.89 79.31, -54.46 90.02 M-27.95 70.95 C-35.41 73.12, -41.13 76.77, -52.31 86.52" stroke="#5f3dc4" stroke-width="4" fill="none"></path></g></g><g stroke-linecap="round" transform="translate(1100.1151087939509 508.10472922200853) rotate(0 90.5 88.49999999999997)"><path d="M50.84 8.16 C59.88 2.15, 73.55 2.39, 84.91 1.77 C96.27 1.15, 108.08 1.4, 119.02 4.45 C129.96 7.5, 141.47 12.9, 150.54 20.06 C159.6 27.23, 168.12 36.89, 173.39 47.45 C178.65 58.01, 181.72 71.66, 182.14 83.44 C182.55 95.21, 179.94 107.65, 175.89 118.11 C171.83 128.57, 165.39 138.13, 157.83 146.2 C150.28 154.27, 141.03 161.34, 130.57 166.51 C120.1 171.68, 106.58 176.47, 95.03 177.23 C83.47 177.98, 71.93 174.92, 61.24 171.05 C50.55 167.18, 39.78 161.18, 30.88 154 C21.99 146.82, 12.86 138.15, 7.89 127.98 C2.91 117.81, 1.87 104.13, 1.05 92.98 C0.23 81.82, -0.38 71.51, 2.96 61.06 C6.31 50.6, 11.81 39.35, 21.12 30.23 C30.43 21.11, 50.74 10.59, 58.81 6.33 C66.87 2.06, 68.88 3.39, 69.5 4.63 M157.89 28.01 C166.59 35.22, 171.55 50.99, 175.53 61.46 C179.5 71.94, 182.28 80.29, 181.74 90.85 C181.19 101.41, 177.04 114.58, 172.25 124.82 C167.45 135.06, 161.72 144.38, 152.99 152.29 C144.26 160.2, 131 168.39, 119.85 172.29 C108.71 176.18, 97.82 176.28, 86.13 175.66 C74.44 175.03, 60.7 173.22, 49.73 168.52 C38.75 163.82, 27.85 156.15, 20.31 147.46 C12.76 138.77, 7.34 126.77, 4.43 116.36 C1.52 105.95, 2.26 96.15, 2.86 84.99 C3.45 73.83, 3.18 60.21, 8.02 49.41 C12.87 38.61, 22.9 27.96, 31.93 20.18 C40.97 12.4, 51.44 5.8, 62.24 2.71 C73.03 -0.38, 85.44 0.83, 96.71 1.63 C107.99 2.43, 119.71 2.49, 129.89 7.5 C140.07 12.51, 153.2 28.1, 157.8 31.71 C162.4 35.33, 158.42 28.33, 157.49 29.18" stroke="#c92a2a" stroke-width="4" fill="none"></path></g><g transform="translate(1105.1151087939509 573.6047292220085) rotate(0 85.5 22.99999999999997)"><text x="85.5" y="32" font-family="Virgil, Segoe UI Emoji" font-size="36px" fill="#c92a2a" text-anchor="middle" style="white-space: pre;" direction="ltr">api/auth/</text></g><g stroke-linecap="round"><g transform="translate(1301.0898779558677 613.0142382669167) rotate(0 278.3409959541195 131.2403516594773)"><path d="M0.97 0.53 C93.7 44.19, 464.28 219.03, 556.66 262.71 M0.02 -0.23 C92.65 42.97, 463.86 216.71, 556.22 260.77" stroke="#087f5b" stroke-width="4" fill="none"></path></g><g transform="translate(1301.0898779558677 613.0142382669167) rotate(0 278.3409959541195 131.2403516594773)"><path d="M527.24 259.65 C536.69 257.92, 546.38 261.22, 554.67 259.99 M526.84 257.03 C537.88 259.52, 547.34 260.93, 555.37 260.26" stroke="#087f5b" stroke-width="4" fill="none"></path></g><g transform="translate(1301.0898779558677 613.0142382669167) rotate(0 278.3409959541195 131.2403516594773)"><path d="M535.99 241.09 C542.71 245.5, 549.53 254.87, 554.67 259.99 M535.6 238.47 C543.47 247.7, 549.76 255.84, 555.37 260.26" stroke="#087f5b" stroke-width="4" fill="none"></path></g></g><g stroke-linecap="round" transform="translate(1777.4226510292453 906.2042219022073) rotate(0 101 57.1206809683498)"><path d="M28.56 0 M28.56 0 C71.03 3.78, 108.34 -1.66, 173.44 0 M28.56 0 C62.85 -0.07, 96.47 -0.83, 173.44 0 M173.44 0 C189.87 -2.71, 199.19 6.34, 202 28.56 M173.44 0 C194.85 4.3, 204.97 6.16, 202 28.56 M202 28.56 C204.13 46.99, 201.6 59.19, 202 85.68 M202 28.56 C201.3 47.62, 202.74 64.23, 202 85.68 M202 85.68 C200.96 104.16, 192.37 115.72, 173.44 114.24 M202 85.68 C197.62 108.14, 191.49 112.38, 173.44 114.24 M173.44 114.24 C133.42 117.97, 95.24 115.7, 28.56 114.24 M173.44 114.24 C128.62 115.31, 84.96 116.16, 28.56 114.24 M28.56 114.24 C9.5 115.42, 2.39 107.05, 0 85.68 M28.56 114.24 C12.27 114.78, 3.66 102.71, 0 85.68 M0 85.68 C1.55 72.24, -2.24 58.62, 0 28.56 M0 85.68 C-2.7 71.49, 0.88 61.64, 0 28.56 M0 28.56 C3.11 7.53, 6.52 0.35, 28.56 0 M0 28.56 C-1.92 12.92, 6.66 1.6, 28.56 0" stroke="#d9480f" stroke-width="4" fill="none"></path></g><g transform="translate(1782.4226510292453 940.3249028705571) rotate(0 96 23)"><text x="96" y="32" font-family="Virgil, Segoe UI Emoji" font-size="36px" fill="#d9480f" text-anchor="middle" style="white-space: pre;" direction="ltr">users/</text></g><g stroke-linecap="round"><g transform="translate(2011.17622031062 857.5810208186177) rotate(0 -0.9874249132742534 101.57062961245146)"><path d="M1.31 -1.91 C1.43 31.85, -0.92 170.9, -1.09 205.05 M-1.42 3.23 C-1.5 37.39, -3.39 167.16, -3.29 200.93" stroke="#e67700" stroke-width="4" fill="none"></path></g></g><g stroke-opacity="0.9" fill-opacity="0.9" stroke-linecap="round" transform="translate(2039.4084731801288 868.4716493911586) rotate(0 5.66788820848069 7.169445173431029)"><path d="M8.39 3.18 C9.01 4.38, 9.4 6.5, 9.9 7.86 C10.4 9.23, 11.68 10.42, 11.37 11.37 C11.07 12.32, 9.23 13.26, 8.06 13.58 C6.89 13.9, 5.74 13.51, 4.34 13.3 C2.94 13.09, 0.65 13.41, -0.35 12.33 C-1.35 11.26, -2.32 8.56, -1.68 6.85 C-1.04 5.14, 1.94 3.46, 3.5 2.08 C5.06 0.7, 6.64 -2.4, 7.66 -1.41 C8.69 -0.41, 9.2 5.77, 9.66 8.03 C10.12 10.29, 10.5 12.18, 10.42 12.15 M10 0.78 C11.31 1.31, 10.02 4.47, 10.36 6.3 C10.7 8.14, 11.98 10.75, 12.03 11.8 C12.09 12.86, 11.66 12.65, 10.7 12.62 C9.74 12.59, 7.81 11.71, 6.28 11.62 C4.74 11.53, 2.51 12.37, 1.5 12.08 C0.49 11.8, 0.52 11.4, 0.2 9.9 C-0.12 8.41, -1.54 4.62, -0.43 3.11 C0.68 1.61, 5.34 1, 6.85 0.88 C8.35 0.76, 8.13 2.06, 8.57 2.39 C9.01 2.72, 9.71 3.23, 9.48 2.88" stroke="none" stroke-width="0" fill="#fa5252"></path><path d="M3.71 -0.21 C5.05 -1.18, 7.96 -0.45, 9.04 -0.04 C10.13 0.36, 9.52 0.61, 10.22 2.22 C10.91 3.82, 12.99 7.99, 13.23 9.59 C13.46 11.2, 12.93 11.13, 11.62 11.84 C10.3 12.56, 6.77 13.84, 5.34 13.88 C3.91 13.93, 3.94 12.72, 3.02 12.13 C2.1 11.54, 0.44 11.91, -0.2 10.33 C-0.84 8.75, -1.46 4.39, -0.83 2.67 C-0.2 0.95, 2.82 0.18, 3.6 -0.01 C4.38 -0.2, 3.96 1.47, 3.87 1.54 M6.62 -1.18 C7.73 -1.23, 8.22 1.77, 9.03 2.56 C9.84 3.35, 11.15 2.45, 11.49 3.56 C11.83 4.67, 11.13 7.62, 11.09 9.22 C11.06 10.82, 12.62 12.66, 11.28 13.14 C9.95 13.62, 5.02 12.48, 3.08 12.11 C1.14 11.75, 0.4 11.51, -0.33 10.97 C-1.07 10.43, -1.12 10.23, -1.33 8.87 C-1.55 7.51, -2.25 3.85, -1.6 2.82 C-0.95 1.8, 1.69 3.49, 2.56 2.71 C3.42 1.93, 2.84 -1.58, 3.59 -1.86" stroke="#d9480f" stroke-width="1" fill="none"></path></g><g stroke-opacity="0.9" fill-opacity="0.9" transform="translate(2078.154463956107 853.6388927887466) rotate(0 54.5 23)"><text x="0" y="32" font-family="Virgil, Segoe UI Emoji" font-size="36px" fill="#d9480f" text-anchor="start" style="white-space: pre;" direction="ltr">GET :</text></g><g transform="translate(2199.407452802622 853.0885135472897) rotate(0 175.5 45.5)"><text x="0" y="32.5" font-family="Virgil, Segoe UI Emoji" font-size="36px" fill="#d9480f" text-anchor="start" style="white-space: pre;" direction="ltr">if Admin : gets all </text><text x="0" y="78" font-family="Virgil, Segoe UI Emoji" font-size="36px" fill="#d9480f" text-anchor="start" style="white-space: pre;" direction="ltr">          users list</text></g><g stroke-opacity="0.9" fill-opacity="0.9" stroke-linecap="round" transform="translate(2042.7355926530606 991.9907699368249) rotate(0 5.66788820848069 7.169445173431029)"><path d="M5.88 1.56 C6.89 1.19, 6.23 2.05, 7.06 2.15 C7.9 2.25, 10.47 1.22, 10.89 2.15 C11.31 3.09, 10.07 6.28, 9.6 7.77 C9.12 9.26, 8.56 9.96, 8.04 11.1 C7.52 12.24, 7.37 14.56, 6.48 14.62 C5.59 14.67, 3.47 12.36, 2.7 11.41 C1.94 10.45, 1.94 10.16, 1.89 8.91 C1.84 7.65, 1.33 4.79, 2.41 3.86 C3.49 2.92, 6.87 1.82, 8.37 3.3 C9.87 4.77, 11.51 12.81, 11.41 12.7 M4.5 2.58 C5.78 3.4, 8.23 4.9, 9.7 6.33 C11.16 7.76, 13.08 10.23, 13.28 11.15 C13.49 12.07, 12.59 11.05, 10.93 11.85 C9.27 12.65, 5.01 15.83, 3.32 15.92 C1.63 16.01, 1.75 14.02, 0.81 12.39 C-0.13 10.77, -2.25 7.63, -2.3 6.18 C-2.36 4.73, -0.31 5.08, 0.48 3.68 C1.28 2.28, 1.39 -1.73, 2.48 -2.2 C3.57 -2.67, 6.42 0.01, 7.01 0.85 C7.59 1.69, 5.61 2.86, 5.98 2.84" stroke="none" stroke-width="0" fill="#fa5252"></path><path d="M5.06 0.1 C6.5 -0.92, 7.13 -1.94, 8.15 -1.45 C9.16 -0.96, 10.39 1.44, 11.16 3.05 C11.92 4.66, 12.83 6.73, 12.75 8.19 C12.66 9.66, 12.02 10.61, 10.64 11.84 C9.26 13.06, 5.9 15.36, 4.46 15.52 C3.02 15.69, 2.57 13.89, 2 12.83 C1.43 11.77, 1.51 10.5, 1.03 9.17 C0.55 7.84, -1.66 6.21, -0.86 4.85 C-0.05 3.49, 4.45 1.64, 5.86 1 C7.27 0.36, 7.71 1.2, 7.58 1 M3.74 2.66 C5.09 2.68, 8.28 1.79, 9.6 1.88 C10.91 1.97, 11.47 1.85, 11.62 3.21 C11.78 4.58, 11.08 8.64, 10.52 10.06 C9.96 11.48, 9.85 11.33, 8.25 11.73 C6.65 12.13, 2.1 12.41, 0.93 12.46 C-0.24 12.51, 1.29 13.49, 1.25 12.03 C1.21 10.57, 0.25 5.47, 0.7 3.7 C1.15 1.93, 3.44 1.91, 3.96 1.43 C4.48 0.94, 3.31 1.29, 3.84 0.79 C4.36 0.29, 6.91 -1.12, 7.1 -1.57" stroke="#d9480f" stroke-width="1" fill="none"></path></g><g transform="translate(2100.88407759901 968.9858156434589) rotate(0 213.5000000000001 68.5)"><text x="0" y="31.666666666666664" font-family="Virgil, Segoe UI Emoji" font-size="36px" fill="#d9480f" text-anchor="start" style="white-space: pre;" direction="ltr">POST : create user by </text><text x="0" y="77.33333333333333" font-family="Virgil, Segoe UI Emoji" font-size="36px" fill="#d9480f" text-anchor="start" style="white-space: pre;" direction="ltr">        username and </text><text x="0" y="123" font-family="Virgil, Segoe UI Emoji" font-size="36px" fill="#d9480f" text-anchor="start" style="white-space: pre;" direction="ltr">        password .</text></g><g stroke-linecap="round"><g transform="translate(1846.649180241787 1039.831177013829) rotate(0 -1.0399959826193026 140.51709772596604)"><path d="M-2.67 2.02 C-2.96 48.66, -1.05 231.42, -1.49 278.08 M1.07 0.65 C0.49 47.72, -2.98 234.29, -3.15 280.39" stroke="#5f3dc4" stroke-width="4" fill="none"></path></g><g transform="translate(1846.649180241787 1039.831177013829) rotate(0 -1.0399959826193026 140.51709772596604)"><path d="M-10.19 253.59 C-13.86 257.04, -5.24 272.61, -2.79 278.14 M-12.82 252.27 C-8.86 261.4, -8.41 266.91, -1.74 280.26" stroke="#5f3dc4" stroke-width="4" fill="none"></path></g><g transform="translate(1846.649180241787 1039.831177013829) rotate(0 -1.0399959826193026 140.51709772596604)"><path d="M10.33 253.85 C0.35 256.83, 2.66 272.31, -2.79 278.14 M7.7 252.52 C5.56 261.96, -0.09 267.4, -1.74 280.26" stroke="#5f3dc4" stroke-width="4" fill="none"></path></g></g><g stroke-linecap="round" transform="translate(1795.8948139600766 1329.242029383974) rotate(0 61.577345374281435 48.78712578368982)"><path d="M24.39 0 M24.39 0 C47.56 1.96, 73.65 -1.89, 98.76 0 M24.39 0 C49.71 0.18, 78.01 0.01, 98.76 0 M98.76 0 C116.41 0.1, 122.8 10.27, 123.15 24.39 M98.76 0 C118.92 0.66, 125.05 10.85, 123.15 24.39 M123.15 24.39 C123.07 41.62, 118.78 58.59, 123.15 73.18 M123.15 24.39 C124.2 36.26, 123.51 50.82, 123.15 73.18 M123.15 73.18 C122.15 92.55, 111.48 101.45, 98.76 97.57 M123.15 73.18 C124.92 93.38, 112.37 95.7, 98.76 97.57 M98.76 97.57 C84.13 94.97, 65.89 98.77, 24.39 97.57 M98.76 97.57 C74.56 98.68, 52.93 98.31, 24.39 97.57 M24.39 97.57 C5.96 99.76, 1.14 88.83, 0 73.18 M24.39 97.57 C9.67 97.53, 4.13 88.25, 0 73.18 M0 73.18 C-0.54 56.5, -0.74 40.03, 0 24.39 M0 73.18 C1.19 58.55, -2.14 45.75, 0 24.39 M0 24.39 C-3.68 10.34, 9.63 3.28, 24.39 0 M0 24.39 C-0.32 6.75, 4.83 -1.16, 24.39 0" stroke="#5c940d" stroke-width="4" fill="none"></path></g><g transform="translate(1800.8948139600766 1355.029155167664) rotate(0 56.5 23)"><text x="56.5" y="32" font-family="Virgil, Segoe UI Emoji" font-size="36px" fill="#5c940d" text-anchor="middle" style="white-space: pre;" direction="ltr">me/</text></g><g stroke-linecap="round"><g transform="translate(1962.5122219336108 1302.0358049774277) rotate(355.501912219256 -4.648564414385987 79.86546255267365)"><path d="M-1.52 1.53 C-3.57 27.48, -8.9 130.55, -10.35 156.44 M2.85 -0.11 C0.32 26.22, -9.76 133.16, -12.15 159.84" stroke="#2b8a3e" stroke-width="4" fill="none"></path></g></g><g transform="translate(1982.1529928382533 1363.6240477702427) rotate(0 129 23)"><text x="0" y="32" font-family="Virgil, Segoe UI Emoji" font-size="36px" fill="#087f5b" text-anchor="start" style="white-space: pre;" direction="ltr">if authorized :</text></g><g stroke-linecap="round"><g transform="translate(2281.2903600513614 1320.6367438890986) rotate(355.501912219256 -4.878458540274551 59.46916517251998)"><path d="M-0.09 -1.33 C-1.17 18.46, -6.69 97.33, -7.6 117.18 M-3.58 4.12 C-4.9 24.44, -9.24 100.84, -9.67 120.27" stroke="#2b8a3e" stroke-width="4" fill="none"></path></g></g><g stroke-opacity="0.9" fill-opacity="0.9" stroke-linecap="round" transform="translate(2304.5839493254352 1324.588835837894) rotate(0 5.66788820848069 7.169445173430972)"><path d="M7.72 2.73 C8.58 3.47, 9.02 2.67, 9.67 4.02 C10.32 5.37, 11.78 9.1, 11.61 10.82 C11.45 12.53, 9.88 13.91, 8.67 14.32 C7.47 14.73, 5.72 13.98, 4.41 13.3 C3.09 12.61, 1.52 11.32, 0.77 10.22 C0.03 9.12, -0.29 8.03, -0.04 6.72 C0.21 5.4, 1.51 3.3, 2.29 2.32 C3.07 1.33, 3.5 0.7, 4.63 0.79 C5.76 0.88, 8.15 1.85, 9.06 2.86 C9.97 3.87, 10.01 6.82, 10.11 6.83 M2.28 -1.88 C3.59 -2.27, 8.74 1.53, 9.81 2.15 C10.89 2.77, 8.16 0.94, 8.72 1.84 C9.29 2.73, 13.54 6, 13.21 7.51 C12.89 9.01, 7.75 9.78, 6.76 10.84 C5.77 11.9, 8.45 14.04, 7.27 13.87 C6.08 13.7, 0.84 11.24, -0.35 9.82 C-1.54 8.41, -0.01 5.99, 0.11 5.38 C0.24 4.78, 0.01 6.78, 0.41 6.18 C0.82 5.58, 2.25 3.08, 2.54 1.8 C2.83 0.52, 1.41 -1.57, 2.14 -1.49" stroke="none" stroke-width="0" fill="#12b886"></path><path d="M8.61 0.56 C9.31 1.75, 10.55 4.68, 10.7 6.75 C10.84 8.82, 10.26 11.49, 9.49 13 C8.71 14.5, 6.92 15.79, 6.04 15.79 C5.15 15.79, 5.11 13.67, 4.17 13 C3.23 12.32, 0.81 13.3, 0.39 11.76 C-0.02 10.22, 1.16 5.76, 1.68 3.77 C2.2 1.78, 3.05 0.43, 3.52 -0.17 C4 -0.77, 3.37 -0.31, 4.53 0.17 C5.69 0.65, 9.08 1.97, 10.49 2.72 C11.91 3.48, 12.89 4.4, 13.01 4.72 M3.44 0.61 C4.36 0.99, 5.33 3.2, 6.93 4.03 C8.52 4.86, 11.95 4.58, 13.02 5.59 C14.08 6.59, 14.31 8.7, 13.33 10.05 C12.36 11.39, 8.32 12.81, 7.14 13.67 C5.96 14.52, 6.86 16.05, 6.25 15.19 C5.64 14.33, 4.38 10.27, 3.47 8.51 C2.56 6.75, 1.07 6.23, 0.81 4.64 C0.54 3.05, 1.21 0.05, 1.88 -1.01 C2.54 -2.08, 4.45 -1.59, 4.78 -1.76 C5.12 -1.93, 3.29 -2.34, 3.89 -2.03" stroke="#087f5b" stroke-width="1" fill="none"></path></g><g stroke-opacity="0.9" fill-opacity="0.9" stroke-linecap="round" transform="translate(2309.548771017644 1404.4855313918501) rotate(0 5.66788820848069 7.169445173431086)"><path d="M8.92 0.47 C10.1 1.32, 11.62 3.04, 11.86 4.84 C12.1 6.64, 11.02 9.87, 10.33 11.27 C9.64 12.67, 8.68 12.62, 7.73 13.24 C6.79 13.85, 5.79 15.23, 4.65 14.95 C3.51 14.67, 1.46 12.61, 0.9 11.56 C0.34 10.5, 1.18 10.4, 1.3 8.62 C1.43 6.85, 0.69 2.56, 1.62 0.92 C2.56 -0.72, 5.06 -2.07, 6.91 -1.21 C8.76 -0.35, 12.34 4.32, 12.72 6.08 C13.1 7.84, 9.48 9.81, 9.19 9.37 M3.73 3.26 C4.07 2.36, 3.59 -1.42, 4.32 -1.53 C5.04 -1.64, 6.85 1.22, 8.09 2.58 C9.33 3.95, 11.45 4.76, 11.79 6.64 C12.12 8.52, 10.89 12.54, 10.12 13.86 C9.34 15.18, 8.32 14.34, 7.13 14.55 C5.94 14.76, 4.45 15.45, 2.98 15.1 C1.5 14.74, -0.95 14.31, -1.73 12.43 C-2.51 10.54, -2.92 5.54, -1.72 3.76 C-0.52 1.99, 4.72 1.99, 5.48 1.77 C6.23 1.55, 3.52 2.72, 2.79 2.45" stroke="none" stroke-width="0" fill="#12b886"></path><path d="M7.83 2.84 C8.87 3.7, 10.74 3.03, 10.92 4.33 C11.1 5.63, 9.74 9.13, 8.92 10.66 C8.09 12.19, 6.48 13.13, 5.96 13.51 C5.44 13.9, 6.5 13.63, 5.8 12.98 C5.11 12.33, 2.99 10.47, 1.82 9.62 C0.65 8.77, -1.39 9.02, -1.23 7.89 C-1.06 6.76, 1.96 4.41, 2.8 2.82 C3.65 1.24, 2.41 -1.6, 3.84 -1.64 C5.27 -1.68, 10.43 1.6, 11.38 2.6 C12.33 3.6, 9.68 4.62, 9.55 4.35 M8.72 -2.78 C10.03 -2.71, 11.13 1.09, 11.47 2.9 C11.82 4.7, 11.53 6.21, 10.79 8.05 C10.05 9.9, 7.65 12.81, 7.04 13.97 C6.42 15.12, 7.43 14.74, 7.11 14.98 C6.8 15.21, 6.53 16.24, 5.14 15.38 C3.75 14.52, -0.27 11.55, -1.21 9.84 C-2.15 8.12, -0.88 6.89, -0.5 5.08 C-0.13 3.27, -0.49 -0.41, 1.04 -1.04 C2.57 -1.67, 7.92 1.39, 8.65 1.32 C9.39 1.26, 5.87 -1.16, 5.43 -1.43" stroke="#087f5b" stroke-width="1" fill="none"></path></g><g transform="translate(2345.8797126485288 1310.727091572557) rotate(0 233.5 23)"><text x="0" y="32" font-family="Virgil, Segoe UI Emoji" font-size="36px" fill="#087f5b" text-anchor="start" style="white-space: pre;" direction="ltr">GET :  gets your profile .</text></g><g transform="translate(2366.208367459968 1382.9955355809311) rotate(0 196.5 45.5)"><text x="0" y="32.5" font-family="Virgil, Segoe UI Emoji" font-size="36px" fill="#087f5b" text-anchor="start" style="white-space: pre;" direction="ltr">PUT :  updated your </text><text x="0" y="78" font-family="Virgil, Segoe UI Emoji" font-size="36px" fill="#087f5b" text-anchor="start" style="white-space: pre;" direction="ltr">        profile .</text></g><g stroke-linecap="round"><g transform="translate(1087.2742755582203 633.2754240630195) rotate(1.6816128611592605 -210.55240825914728 96.90609761166394)"><path d="M0.33 -0.46 C-69.86 31.97, -350.27 163.13, -420.64 195.55 M-0.95 -1.74 C-71.33 30.28, -351.69 161.13, -421.44 193.95" stroke="#087f5b" stroke-width="4" fill="none"></path></g><g transform="translate(1087.2742755582203 633.2754240630195) rotate(1.6816128611592605 -210.55240825914728 96.90609761166394)"><path d="M-401.01 173.18 C-405.73 178.52, -415.45 188.65, -421.29 194.07 M-399.73 172.01 C-406.93 179.42, -415.76 188.14, -421.32 194.21" stroke="#087f5b" stroke-width="4" fill="none"></path></g><g transform="translate(1087.2742755582203 633.2754240630195) rotate(1.6816128611592605 -210.55240825914728 96.90609761166394)"><path d="M-392.31 191.77 C-400.18 190.73, -412.89 194.46, -421.29 194.07 M-391.03 190.6 C-401.08 191.57, -412.96 193.81, -421.32 194.21" stroke="#087f5b" stroke-width="4" fill="none"></path></g></g><g stroke-linecap="round" transform="translate(386.4581442961711 835.8944546791978) rotate(0 138 57.5)"><path d="M28.75 0 M28.75 0 C98.66 3.58, 176.38 2.16, 247.25 0 M28.75 0 C104.07 3.69, 182.98 2.83, 247.25 0 M247.25 0 C268.15 3.88, 272.13 5.63, 276 28.75 M247.25 0 C262.95 1.19, 278 9.98, 276 28.75 M276 28.75 C276.15 47.97, 274.18 62.86, 276 86.25 M276 28.75 C276.74 39.99, 275.13 55.62, 276 86.25 M276 86.25 C274.28 103.97, 264.48 118.69, 247.25 115 M276 86.25 C275.05 106.1, 262.94 118.14, 247.25 115 M247.25 115 C161.26 111.67, 77.01 115.28, 28.75 115 M247.25 115 C163.47 116.51, 77.42 115.86, 28.75 115 M28.75 115 C6.02 117.83, 2.48 108.59, 0 86.25 M28.75 115 C11.51 112.57, -4.5 109.59, 0 86.25 M0 86.25 C-1.2 67.15, -4.8 53.93, 0 28.75 M0 86.25 C0.5 65.22, 0.84 44.52, 0 28.75 M0 28.75 C3.13 11.89, 9.86 2.99, 28.75 0 M0 28.75 C4.2 5.04, 8.11 -3.94, 28.75 0" stroke="#0b7285" stroke-width="4" fill="none"></path></g><g transform="translate(391.4581442961711 870.3944546791978) rotate(0 133 23)"><text x="133" y="32" font-family="Virgil, Segoe UI Emoji" font-size="36px" fill="#0b7285" text-anchor="middle" style="white-space: pre;" direction="ltr">create/token/</text></g><g stroke-linecap="round"><g transform="translate(649.7899702625514 926.1012274194461) rotate(269.124206447688 52.61829263615998 -2.1698711786151534)"><path d="M1.15 -1.17 C18.81 -0.78, 89.37 0.29, 106.91 0.12 M-1.67 -4.28 C15.57 -4.48, 87.15 -4.73, 104.83 -3.9" stroke="#0b7285" stroke-width="4" fill="none"></path></g></g><g transform="translate(769.2214214141237 871.7419714737259) rotate(0 227 45.5)"><text x="0" y="32.5" font-family="Virgil, Segoe UI Emoji" font-size="36px" fill="#0b7285" text-anchor="start" style="white-space: pre;" direction="ltr">POST : sends otp </text><text x="0" y="78" font-family="Virgil, Segoe UI Emoji" font-size="36px" fill="#0b7285" text-anchor="start" style="white-space: pre;" direction="ltr">        with phone number</text></g><g stroke-linecap="round"><g transform="translate(525.0493104878291 957.4814978229517) rotate(0 -0.3114974968267319 198.90968859310755)"><path d="M-2.56 0.15 C-1.84 66.49, 0.82 330.3, 1.94 396.76 M1.24 -2.23 C1.85 64.65, -0.49 333.97, -0.07 400.05" stroke="#5c940d" stroke-width="4" fill="none"></path></g><g transform="translate(525.0493104878291 957.4814978229517) rotate(0 -0.3114974968267319 198.90968859310755)"><path d="M-10.05 372.45 C-9.24 381.85, -3.94 383.42, -0.49 402.53 M-9.24 372.77 C-7.48 380.64, -3.11 389.93, 0.86 399.31" stroke="#5c940d" stroke-width="4" fill="none"></path></g><g transform="translate(525.0493104878291 957.4814978229517) rotate(0 -0.3114974968267319 198.90968859310755)"><path d="M10.47 372.5 C6.9 381.51, 7.81 383.07, -0.49 402.53 M11.28 372.81 C6.39 380.8, 4.11 390.08, 0.86 399.31" stroke="#5c940d" stroke-width="4" fill="none"></path></g></g><g stroke-linecap="round" transform="translate(451.70083559464547 1366.4490563785082) rotate(0 72.5 53.82842872855883)"><path d="M26.91 0 M26.91 0 C51.87 3.6, 74.58 0.41, 118.09 0 M26.91 0 C46.41 3.34, 65.72 2.19, 118.09 0 M118.09 0 C134.64 2.86, 148.57 8.44, 145 26.91 M118.09 0 C140.19 -2.1, 145.63 12.15, 145 26.91 M145 26.91 C142.32 46.61, 146.46 60.58, 145 80.74 M145 26.91 C145.95 48.76, 144.29 67.58, 145 80.74 M145 80.74 C148.52 95.42, 135.91 105.42, 118.09 107.66 M145 80.74 C144.21 98.23, 133.49 105.06, 118.09 107.66 M118.09 107.66 C94.77 111.54, 74.74 106.78, 26.91 107.66 M118.09 107.66 C83.59 108.91, 47.76 107.74, 26.91 107.66 M26.91 107.66 C7.84 107.36, -2.47 97.67, 0 80.74 M26.91 107.66 C12.4 110.75, -2.19 100.12, 0 80.74 M0 80.74 C2.21 66.98, 2.06 50.51, 0 26.91 M0 80.74 C0.38 62.36, 1.13 43.56, 0 26.91 M0 26.91 C1.25 6.54, 8.34 -2.43, 26.91 0 M0 26.91 C4.53 6.96, 10.75 -4.31, 26.91 0" stroke="#5c940d" stroke-width="4" fill="none"></path></g><g transform="translate(456.70083559464547 1397.2774851070672) rotate(0 67.5 23)"><text x="67.5" y="32" font-family="Virgil, Segoe UI Emoji" font-size="36px" fill="#5c940d" text-anchor="middle" style="white-space: pre;" direction="ltr">otp</text></g><g stroke-linecap="round"><g transform="translate(639.6418698510292 1364.7725879489442) rotate(357.95066441459915 -1.7097484248192814 57.6267932777065)"><path d="M-1.12 -0.1 C-1.68 19.22, -3.5 96.99, -3.91 116.45 M0.49 -1.19 C0.38 17.75, -0.68 95.47, -1.51 114.81" stroke="#5c940d" stroke-width="4" fill="none"></path></g></g><g transform="translate(721.1025645265789 1356.6300313139004) rotate(0 198.5 91)"><text x="0" y="32.5" font-family="Virgil, Segoe UI Emoji" font-size="36px" fill="#5c940d" text-anchor="start" style="white-space: pre;" direction="ltr">POST : verify otp and</text><text x="0" y="78" font-family="Virgil, Segoe UI Emoji" font-size="36px" fill="#5c940d" text-anchor="start" style="white-space: pre;" direction="ltr">         gets refresh</text><text x="0" y="123.5" font-family="Virgil, Segoe UI Emoji" font-size="36px" fill="#5c940d" text-anchor="start" style="white-space: pre;" direction="ltr">         and create</text><text x="0" y="169" font-family="Virgil, Segoe UI Emoji" font-size="36px" fill="#5c940d" text-anchor="start" style="white-space: pre;" direction="ltr">         tokens .</text></g><g transform="translate(1099.2995307356646 285.7927217970484) rotate(0 78.5 23)"><text x="78.5" y="32" font-family="Virgil, Segoe UI Emoji" font-size="36px" fill="#c92a2a" text-anchor="middle" style="white-space: pre;" direction="ltr">Core app</text></g><g stroke-opacity="0.9" fill-opacity="0.9" stroke-linecap="round" transform="translate(735.9470368895962 888.2025087225952) rotate(0 5.66788820848069 7.169445173431029)"><path d="M2.36 0.16 C3.38 -0.16, 7.16 0.61, 8.35 1.12 C9.53 1.64, 8.9 2.16, 9.47 3.25 C10.04 4.34, 11.75 5.84, 11.79 7.67 C11.83 9.5, 10.75 13.32, 9.69 14.25 C8.63 15.18, 7.03 13.47, 5.44 13.25 C3.85 13.03, 0.99 13.38, 0.13 12.92 C-0.73 12.47, 0.24 12.25, 0.28 10.51 C0.32 8.78, -0.63 3.83, 0.38 2.52 C1.38 1.2, 4.37 1.91, 6.31 2.61 C8.25 3.32, 11.69 7.15, 12 6.74 M0.56 2.39 C1.04 1.03, 4.75 -2.07, 6.35 -2.5 C7.95 -2.93, 9.17 -1.15, 10.17 -0.18 C11.16 0.79, 12.29 1.55, 12.31 3.34 C12.33 5.13, 10.8 8.72, 10.28 10.54 C9.77 12.37, 10.64 13.39, 9.22 14.31 C7.79 15.22, 3.05 16.17, 1.75 16.05 C0.44 15.93, 2.08 15.22, 1.39 13.58 C0.69 11.94, -2.35 8.6, -2.41 6.24 C-2.48 3.88, 0.3 -0.35, 0.99 -0.6 C1.68 -0.85, 1.59 3.88, 1.73 4.73" stroke="none" stroke-width="0" fill="#15aabf"></path><path d="M0.43 -0.17 C1.55 -0.92, 5.12 1.3, 6.4 1.62 C7.68 1.95, 7.5 1.29, 8.11 1.78 C8.72 2.28, 9.68 3.02, 10.04 4.57 C10.41 6.13, 10.58 9.38, 10.28 11.12 C9.99 12.86, 9.32 14.54, 8.29 15.02 C7.26 15.49, 5.3 14.95, 4.09 13.96 C2.87 12.96, 1.65 10.14, 0.99 9.05 C0.33 7.96, -0.57 9.12, 0.13 7.41 C0.82 5.7, 3.84 0.06, 5.18 -1.23 C6.52 -2.52, 8.12 -0.61, 8.15 -0.32 M7.39 0.92 C8.43 1.43, 12.78 3.4, 13.18 5.03 C13.57 6.66, 10.27 8.91, 9.77 10.71 C9.27 12.5, 11.02 15.42, 10.18 15.81 C9.35 16.21, 6.38 14.41, 4.74 13.08 C3.11 11.74, 1.21 9.17, 0.35 7.82 C-0.52 6.47, -1.05 6.04, -0.47 4.97 C0.11 3.9, 2.82 1.91, 3.81 1.4 C4.81 0.89, 4.45 2.24, 5.49 1.92 C6.53 1.59, 9.46 -0.15, 10.04 -0.56 C10.63 -0.96, 8.9 -0.98, 9.01 -0.52" stroke="#0b7285" stroke-width="1" fill="none"></path></g><g stroke-opacity="0.9" fill-opacity="0.9" stroke-linecap="round" transform="translate(665.683191714599 1368.6953102030373) rotate(0 5.66788820848069 7.169445173430972)"><path d="M6.54 1.52 C7.19 1.9, 7.91 3.49, 8.74 4.6 C9.56 5.72, 11.19 7.22, 11.47 8.21 C11.76 9.2, 11.09 9.39, 10.45 10.53 C9.81 11.67, 9.12 14.32, 7.63 15.05 C6.15 15.78, 2.63 15.96, 1.54 14.9 C0.44 13.83, 1.43 10.56, 1.06 8.66 C0.69 6.75, -1.14 4.66, -0.7 3.46 C-0.27 2.26, 2.34 1.63, 3.68 1.47 C5.01 1.31, 6.75 2.21, 7.32 2.47 C7.89 2.73, 7.05 3.05, 7.12 3.02 M5.5 -1.26 C6.65 -1.89, 6.51 1.8, 7.63 2.27 C8.75 2.74, 11.86 0.38, 12.23 1.56 C12.61 2.73, 10.96 7.85, 9.9 9.32 C8.85 10.8, 6.35 9.5, 5.92 10.4 C5.49 11.3, 7.73 14.11, 7.33 14.73 C6.93 15.36, 4.67 15.86, 3.5 14.17 C2.33 12.49, 0.81 6.74, 0.32 4.62 C-0.17 2.5, 0.18 2.14, 0.55 1.46 C0.92 0.77, 2.34 1.02, 2.54 0.51 C2.74 -0.01, 1.63 -1.7, 1.76 -1.63" stroke="none" stroke-width="0" fill="#12b886"></path><path d="M7.06 -1.9 C8.6 -2.22, 9.39 -1.23, 10.27 0.08 C11.15 1.4, 12.55 3.93, 12.34 5.99 C12.14 8.06, 9.63 11.06, 9.06 12.48 C8.5 13.9, 9.83 14.28, 8.95 14.52 C8.08 14.76, 4.86 14.45, 3.81 13.92 C2.76 13.38, 3.03 12.7, 2.64 11.31 C2.25 9.93, 1.69 7.39, 1.46 5.61 C1.23 3.84, 0.12 1.61, 1.26 0.66 C2.4 -0.29, 7.21 -0.48, 8.3 -0.09 C9.38 0.3, 8.02 3.01, 7.76 3.02 M2.91 2.95 C3.65 1.42, 4.34 0.29, 4.77 -0.15 C5.2 -0.6, 4.69 -0.7, 5.5 0.28 C6.32 1.26, 9.22 4, 9.66 5.74 C10.1 7.49, 8.45 9.45, 8.15 10.76 C7.84 12.07, 8.07 12.85, 7.82 13.62 C7.58 14.38, 7.26 15.53, 6.67 15.36 C6.08 15.19, 5.37 13.87, 4.29 12.58 C3.22 11.3, 0.24 9.73, 0.21 7.65 C0.18 5.57, 3.9 0.64, 4.11 0.11 C4.32 -0.41, 1.5 3.55, 1.47 4.49" stroke="#5c940d" stroke-width="1" fill="none"></path></g><g stroke-opacity="0.3" fill-opacity="0.3" stroke-linecap="round" transform="translate(10.000000000000114 9.999999999999943) rotate(0 1406.0939030650745 938.0308542346206)"><path d="M89.84 148.32 C89.84 148.32, 89.84 148.32, 89.84 148.32 M89.84 148.32 C89.84 148.32, 89.84 148.32, 89.84 148.32 M60.58 206.37 C87.7 173.42, 120.59 138.08, 156.37 96.18 M60.58 206.37 C92.38 172.24, 122.68 136.86, 156.37 96.18 M30.67 265.16 C94.23 192.74, 161.04 114.58, 194.69 76.49 M30.67 265.16 C92.22 197.1, 152.05 124.8, 194.69 76.49 M21.75 299.81 C68.53 245.86, 116.71 191.94, 233.66 56.04 M21.75 299.81 C100.67 214.13, 177.22 125.88, 233.66 56.04 M12.83 334.46 C94.87 237.67, 180.58 142.6, 264.76 44.65 M12.83 334.46 C88.63 245.89, 167.87 156.4, 264.76 44.65 M9.16 363.07 C107.48 249.17, 200.67 141.43, 297.17 31.75 M9.16 363.07 C94.28 263.28, 180.4 165.58, 297.17 31.75 M5.49 391.68 C101.09 281.57, 196.67 172.3, 334.84 12.82 M5.49 391.68 C73.13 313.3, 141.93 234.29, 334.84 12.82 M5.76 415.76 C116.06 289.97, 220.02 169.68, 359.38 8.97 M5.76 415.76 C119.19 285.15, 231.72 154.98, 359.38 8.97 M4.71 441.35 C94.25 338.99, 184.93 236.43, 383.26 5.88 M4.71 441.35 C103.89 325.14, 205.64 208.34, 383.26 5.88 M1.04 469.96 C157.09 288.96, 313 107.42, 397.3 14.12 M1.04 469.96 C95.98 356.29, 194.48 243.46, 397.3 14.12 M1.31 494.04 C125.3 353.93, 250.19 210.32, 419.22 13.29 M1.31 494.04 C167.29 309.26, 328.23 122.74, 419.22 13.29 M0.92 518.88 C153.61 346.2, 300.43 176.84, 441.14 12.47 M0.92 518.88 C141.51 353.4, 284.59 188.05, 441.14 12.47 M1.19 542.96 C157.66 364.65, 314.98 184.52, 471.58 1.84 M1.19 542.96 C181.76 334.74, 366.71 122.34, 471.58 1.84 M0.8 567.8 C131.63 429.12, 253.92 283.81, 492.84 1.77 M0.8 567.8 C198.28 340.68, 393.91 113.57, 492.84 1.77 M1.06 591.88 C170.06 405.22, 334.45 214.18, 514.1 1.7 M1.06 591.88 C113 467.13, 223.34 341.01, 514.1 1.7 M1.33 615.96 C181.53 414.42, 361.54 208.07, 534.71 2.38 M1.33 615.96 C181.79 409.04, 364.94 198.11, 534.71 2.38 M0.94 640.8 C215.44 395.04, 428.41 149.78, 555.97 2.31 M0.94 640.8 C171.42 447.09, 342.8 249.75, 555.97 2.31 M1.21 664.88 C226.95 407.95, 452.69 147.43, 577.23 2.25 M1.21 664.88 C136.26 505.98, 273 348.93, 577.23 2.25 M0.82 689.72 C234.27 426.36, 465.33 161.79, 598.49 2.18 M0.82 689.72 C139.46 524.54, 282.48 359.8, 598.49 2.18 M1.08 713.8 C163.38 519.1, 328.5 327.94, 619.75 2.11 M1.08 713.8 C240.44 443.82, 478.23 171.04, 619.75 2.11 M1.35 737.88 C191.44 515.27, 387.49 289.22, 641.01 2.04 M1.35 737.88 C190.8 525.96, 375.69 313.4, 641.01 2.04 M0.96 762.72 C175.7 571.4, 342.66 377.61, 662.27 1.97 M0.96 762.72 C202.27 538.95, 398.94 311.63, 662.27 1.97 M1.23 786.8 C182.16 569.3, 369.61 353.17, 683.53 1.9 M1.23 786.8 C171.41 589.36, 348.56 386.12, 683.53 1.9 M0.84 811.63 C186.7 602.92, 369.59 394.16, 704.79 1.83 M0.84 811.63 C219.09 563.78, 438.31 312.46, 704.79 1.83 M1.1 835.72 C256.31 542.46, 505.96 250.79, 726.05 1.76 M1.1 835.72 C189.86 618.87, 378.22 402.13, 726.05 1.76 M1.37 859.8 C179.73 650.71, 356.92 447.03, 746.65 2.45 M1.37 859.8 C280.92 542.4, 555.7 227.09, 746.65 2.45 M0.98 884.63 C245.54 604.57, 489.95 322.83, 767.91 2.38 M0.98 884.63 C248.53 597.04, 497.39 310.61, 767.91 2.38 M1.24 908.72 C291.99 567.04, 588.37 228.09, 789.17 2.31 M1.24 908.72 C180.54 702.54, 364.17 491.09, 789.17 2.31 M0.86 933.55 C250.53 635.25, 505.85 340.05, 810.43 2.24 M0.86 933.55 C316.19 565.24, 635.27 198.96, 810.43 2.24 M1.12 957.63 C243.76 685.65, 483.46 407.92, 831.69 2.17 M1.12 957.63 C237.66 689.84, 472.5 418.6, 831.69 2.17 M1.39 981.72 C178.86 786.56, 350.6 590.03, 852.95 2.1 M1.39 981.72 C288.72 659.9, 571.77 333.52, 852.95 2.1 M1 1006.55 C214.69 767.93, 421.71 529.76, 874.21 2.03 M1 1006.55 C275.9 688.6, 548.77 373.99, 874.21 2.03 M1.26 1030.63 C330.75 646.98, 664.07 265.2, 895.47 1.96 M1.26 1030.63 C275.11 701.62, 557.05 378.28, 895.47 1.96 M0.87 1055.47 C280.6 731.57, 556.1 412.97, 916.73 1.9 M0.87 1055.47 C295.69 704.15, 597.75 356.8, 916.73 1.9 M1.14 1079.55 C329.06 696.46, 660.01 313.31, 937.99 1.83 M1.14 1079.55 C221.35 824.73, 438.71 573.35, 937.99 1.83 M0.75 1104.39 C205.68 876.92, 406.81 643.95, 958.6 2.51 M0.75 1104.39 C344.43 704.7, 689.87 306.66, 958.6 2.51 M1.02 1128.47 C210.09 875.59, 426.62 627.88, 979.86 2.44 M1.02 1128.47 C282.51 802.96, 571.45 469.29, 979.86 2.44 M1.28 1152.55 C316.86 776.84, 636.75 410.05, 1001.12 2.37 M1.28 1152.55 C252.9 866.38, 498.46 583.5, 1001.12 2.37 M0.89 1177.39 C377.37 747.17, 748.52 323.11, 1022.38 2.31 M0.89 1177.39 C234.08 915.75, 464.13 651.29, 1022.38 2.31 M1.16 1201.47 C230.18 934.81, 461.86 666.6, 1043.64 2.24 M1.16 1201.47 C254.97 906.89, 503.66 619.13, 1043.64 2.24 M0.77 1226.31 C332.97 837.86, 672.76 444.73, 1064.9 2.17 M0.77 1226.31 C284.37 900.79, 561.91 580.72, 1064.9 2.17 M1.04 1250.39 C364.05 817.59, 734.43 391.82, 1086.16 2.1 M1.04 1250.39 C240.98 979.81, 473.8 712.22, 1086.16 2.1 M1.3 1274.47 C388.69 825.55, 784.61 370.22, 1107.42 2.03 M1.3 1274.47 C390.66 822.59, 785.67 366.64, 1107.42 2.03 M0.91 1299.31 C376.04 853.55, 756.85 414.29, 1128.68 1.96 M0.91 1299.31 C284.39 961.13, 576.22 625.01, 1128.68 1.96 M1.18 1323.39 C329.96 961.37, 649.42 594.85, 1149.94 1.89 M1.18 1323.39 C452.94 817.49, 894.14 308.88, 1149.94 1.89 M0.79 1348.22 C363.77 933.79, 723.4 518.55, 1170.54 2.58 M0.79 1348.22 C312.59 975.93, 633.57 605.73, 1170.54 2.58 M1.06 1372.31 C257.93 1070.85, 520.22 771.26, 1191.8 2.51 M1.06 1372.31 C392.41 920.6, 782.9 469.87, 1191.8 2.51 M1.32 1396.39 C467.97 872.93, 928.05 344.15, 1213.06 2.44 M1.32 1396.39 C454.92 862.95, 916.42 330.15, 1213.06 2.44 M7.49 1413.68 C308.51 1051.6, 618.14 699.63, 1234.32 2.37 M7.49 1413.68 C364.18 997.13, 719.88 586.03, 1234.32 2.37 M8.42 1437 C410.34 993.54, 805.13 538.84, 1255.58 2.3 M8.42 1437 C400.25 990.74, 789.96 541.84, 1255.58 2.3 M9.99 1459.58 C487.01 903.37, 969.5 347.28, 1276.84 2.23 M9.99 1459.58 C364.79 1030.87, 729.05 612.28, 1276.84 2.23 M10.92 1482.9 C404.25 1023.83, 807.68 559.01, 1298.1 2.16 M10.92 1482.9 C294.67 1167.37, 575.98 844.42, 1298.1 2.16 M16.43 1500.95 C459.44 977.04, 912.44 453.45, 1319.36 2.09 M16.43 1500.95 C348.13 1114.12, 676.41 736.36, 1319.36 2.09 M19.32 1522.01 C305.38 1200.03, 581.33 884.97, 1340.62 2.03 M19.32 1522.01 C359.97 1116, 708.1 714.96, 1340.62 2.03 M18.28 1547.6 C316.56 1186.85, 622.56 836.08, 1361.88 1.96 M18.28 1547.6 C339.32 1185.43, 652.59 824.34, 1361.88 1.96 M22.48 1567.16 C387.7 1162.77, 747.34 751.69, 1382.49 2.64 M22.48 1567.16 C345.47 1203.92, 658.72 843.9, 1382.49 2.64 M23.4 1590.48 C333.24 1228.38, 643.14 869.31, 1403.75 2.57 M23.4 1590.48 C574.47 970.26, 1117.87 344.56, 1403.75 2.57 M28.92 1608.53 C555.83 984.32, 1089.76 368.36, 1425.01 2.5 M28.92 1608.53 C467.22 1095.04, 905.04 590.49, 1425.01 2.5 M35.09 1625.82 C451.34 1165.24, 855.64 698.16, 1446.27 2.44 M35.09 1625.82 C345.34 1266.31, 648.21 919.48, 1446.27 2.44 M43.88 1640.09 C462.53 1159.93, 887.08 671.6, 1467.53 2.37 M43.88 1640.09 C504.89 1089.86, 972.76 552.19, 1467.53 2.37 M51.36 1655.87 C481.76 1166.47, 899.43 683.67, 1488.79 2.3 M51.36 1655.87 C472.99 1187.79, 888.02 710.22, 1488.79 2.3 M56.22 1674.66 C604.82 1033.14, 1161.06 393.19, 1510.05 2.23 M56.22 1674.66 C495.25 1179.85, 933.22 674.85, 1510.05 2.23 M65.02 1688.94 C440.81 1270.68, 802.91 854.58, 1531.31 2.16 M65.02 1688.94 C546.42 1126.95, 1029.46 570.31, 1531.31 2.16 M73.81 1703.21 C438.91 1306.07, 793.27 900.65, 1552.57 2.09 M73.81 1703.21 C476.78 1244.51, 884.47 775.39, 1552.57 2.09 M83.92 1715.97 C524.04 1190.97, 976.3 669.01, 1573.83 2.02 M83.92 1715.97 C620.05 1093.66, 1157.57 474.89, 1573.83 2.02 M94.03 1728.73 C561.45 1201.83, 1018.41 677.25, 1594.43 2.71 M94.03 1728.73 C563.36 1201.37, 1028.89 665.53, 1594.43 2.71 M103.48 1742.24 C611.65 1145.97, 1124.9 557.25, 1615.69 2.64 M103.48 1742.24 C592.02 1162.71, 1087.06 591.51, 1615.69 2.64 M114.9 1753.5 C502.83 1323.72, 890.24 879.94, 1636.95 2.57 M114.9 1753.5 C531.05 1268, 959.54 774.72, 1636.95 2.57 M126.32 1764.75 C678 1110.96, 1240.16 462.74, 1658.21 2.5 M126.32 1764.75 C549.28 1264.8, 986.76 762.16, 1658.21 2.5 M137.74 1776 C737.03 1088.78, 1340.59 392.65, 1679.48 2.43 M137.74 1776 C560.68 1275.48, 990.78 781.23, 1679.48 2.43 M149.16 1787.25 C690.53 1166.82, 1218.69 559.71, 1700.74 2.36 M149.16 1787.25 C459.39 1413.63, 780.61 1043.33, 1700.74 2.36 M162.54 1796.24 C569.31 1339.93, 976.69 873.09, 1722 2.29 M162.54 1796.24 C491.3 1413.39, 814.56 1041.32, 1722 2.29 M175.93 1805.23 C722.03 1176.03, 1256.28 560.18, 1743.26 2.22 M175.93 1805.23 C765.06 1118.47, 1366.27 425.84, 1743.26 2.22 M188.66 1814.97 C555.58 1385.78, 928.55 953.92, 1764.52 2.16 M188.66 1814.97 C800.44 1113.96, 1417.23 405.24, 1764.52 2.16 M203.36 1822.45 C823.53 1117.81, 1439.22 407.8, 1785.78 2.09 M203.36 1822.45 C563.43 1432.52, 908.55 1032.81, 1785.78 2.09 M218.06 1829.92 C750.59 1225.6, 1281.71 614.46, 1807.04 2.02 M218.06 1829.92 C797.93 1153.27, 1379.79 483.1, 1807.04 2.02 M231.45 1838.91 C592.68 1415.7, 967.83 987, 1827.64 2.7 M231.45 1838.91 C591.79 1418.31, 961.43 993.26, 1827.64 2.7 M247.46 1844.88 C877.53 1127.93, 1504.62 406.21, 1848.9 2.63 M247.46 1844.88 C711.89 1316.33, 1169.51 789.27, 1848.9 2.63 M263.47 1850.85 C857.06 1181.15, 1442.12 508.71, 1870.16 2.56 M263.47 1850.85 C675.08 1372.4, 1091.47 893.83, 1870.16 2.56 M280.14 1856.06 C750.7 1308.93, 1217.65 770.12, 1891.42 2.5 M280.14 1856.06 C808.09 1254.85, 1320.98 663.95, 1891.42 2.5 M296.15 1862.03 C615.63 1500.29, 940.89 1126.03, 1912.68 2.43 M296.15 1862.03 C701.47 1386.26, 1109.05 916.47, 1912.68 2.43 M314.13 1865.74 C886.86 1219.2, 1443.09 579.89, 1933.94 2.36 M314.13 1865.74 C722.7 1396.38, 1126.3 933.33, 1933.94 2.36 M332.11 1869.44 C807.52 1304.96, 1295.07 742.56, 1955.2 2.29 M332.11 1869.44 C790.69 1355.22, 1241.71 836.74, 1955.2 2.29 M350.09 1873.15 C854.53 1314.63, 1342.74 750.89, 1976.46 2.22 M350.09 1873.15 C791.82 1356.09, 1240.36 841.47, 1976.46 2.22 M368.07 1876.85 C943.29 1208.39, 1515.65 550.5, 1997.72 2.15 M368.07 1876.85 C901.24 1285.87, 1420.97 686.86, 1997.72 2.15 M388.02 1878.29 C963.11 1246.45, 1523.16 600.37, 2018.98 2.08 M388.02 1878.29 C750.4 1476.12, 1100.69 1072.34, 2018.98 2.08 M407.97 1879.73 C1016.24 1174.08, 1633.99 464.5, 2039.59 2.77 M407.97 1879.73 C869.76 1356.44, 1316.64 841.23, 2039.59 2.77 M427.26 1881.93 C880.13 1329.93, 1349.99 791.62, 2060.85 2.7 M427.26 1881.93 C916.2 1329.77, 1402.7 770.75, 2060.85 2.7 M447.86 1882.61 C1018.51 1235.32, 1578.76 592.44, 2082.11 2.63 M447.86 1882.61 C1021.4 1211.35, 1604.1 540.78, 2082.11 2.63 M469.12 1882.54 C1089.76 1160.33, 1715.51 441.78, 2103.37 2.56 M469.12 1882.54 C1063.46 1172.54, 1670.93 474.05, 2103.37 2.56 M490.38 1882.47 C1024.46 1257.84, 1569.61 633.28, 2124.63 2.49 M490.38 1882.47 C966.6 1322.07, 1450.05 765.03, 2124.63 2.49 M511.64 1882.4 C1035.86 1297.12, 1553.14 702.44, 2145.89 2.42 M511.64 1882.4 C987.35 1321.28, 1473.51 760.98, 2145.89 2.42 M532.9 1882.34 C1138.56 1169.33, 1759.4 454.23, 2167.15 2.35 M532.9 1882.34 C1099.84 1242.99, 1651.74 606.3, 2167.15 2.35 M554.16 1882.27 C892.4 1491.19, 1231.08 1101.97, 2188.41 2.28 M554.16 1882.27 C1124.71 1214.89, 1705.09 548.43, 2188.41 2.28 M575.42 1882.2 C968.94 1422.52, 1367.95 965.62, 2209.67 2.22 M575.42 1882.2 C980.72 1432.62, 1378.39 974.85, 2209.67 2.22 M596.68 1882.13 C953.46 1483.25, 1295.25 1092.63, 2230.93 2.15 M596.68 1882.13 C986.97 1432.44, 1372.56 988.33, 2230.93 2.15 M617.94 1882.06 C972.72 1453.22, 1335.67 1038.82, 2251.53 2.83 M617.94 1882.06 C1078.38 1328.53, 1547.23 788.44, 2251.53 2.83 M638.55 1882.75 C1144.06 1295.81, 1653.43 711.79, 2272.79 2.76 M638.55 1882.75 C1050.44 1404.32, 1462.54 932.2, 2272.79 2.76 M659.81 1882.68 C1222.91 1237.01, 1786.88 588.49, 2294.05 2.69 M659.81 1882.68 C1080.62 1382.25, 1512.16 886.14, 2294.05 2.69 M681.07 1882.61 C1220.45 1256.79, 1772.38 624.83, 2315.31 2.63 M681.07 1882.61 C1226.08 1264.73, 1757.74 653.91, 2315.31 2.63 M702.33 1882.54 C1332.14 1183.37, 1945.81 477.95, 2336.57 2.56 M702.33 1882.54 C1173.57 1369.82, 1629.64 845.07, 2336.57 2.56 M723.59 1882.47 C1269.56 1245.17, 1827.72 602.75, 2357.83 2.49 M723.59 1882.47 C1377.78 1135.09, 2028.15 387.63, 2357.83 2.49 M744.85 1882.4 C1090.65 1487.82, 1445.21 1079.75, 2377.12 4.68 M744.85 1882.4 C1321.85 1223.78, 1904.01 553.42, 2377.12 4.68 M766.11 1882.33 C1120.5 1483.39, 1477.1 1073.82, 2397.07 6.12 M766.11 1882.33 C1127.3 1465.32, 1493.95 1044.29, 2397.07 6.12 M787.37 1882.26 C1292.16 1322.01, 1780.44 758.57, 2417.02 7.56 M787.37 1882.26 C1186.4 1435.47, 1570.33 991.82, 2417.02 7.56 M808.63 1882.19 C1272.07 1330.39, 1743.9 787.15, 2435 11.27 M808.63 1882.19 C1420.38 1160.35, 2036.24 450.91, 2435 11.27 M829.89 1882.12 C1477.9 1143.69, 2119.75 403.48, 2453.64 14.22 M829.89 1882.12 C1425.44 1178.55, 2029.03 484.6, 2453.64 14.22 M850.49 1882.81 C1362.49 1272.4, 1885.21 673.24, 2472.93 16.41 M850.49 1882.81 C1238.63 1433.2, 1640.19 971.11, 2472.93 16.41 M871.75 1882.74 C1213.83 1508.59, 1541.17 1134.86, 2489.6 21.63 M871.75 1882.74 C1417.68 1255.37, 1955.04 634.39, 2489.6 21.63 M893.02 1882.67 C1402.14 1315.06, 1893.83 748.38, 2506.92 26.09 M893.02 1882.67 C1271.57 1449.48, 1646.65 1018.57, 2506.92 26.09 M914.28 1882.6 C1483.18 1218.85, 2059.78 549.97, 2524.24 30.55 M914.28 1882.6 C1240.87 1494.12, 1574.05 1112.47, 2524.24 30.55 M935.54 1882.53 C1375.68 1372.1, 1810.27 873.8, 2541.57 35 M935.54 1882.53 C1514.15 1240.77, 2081.99 588.51, 2541.57 35 M956.8 1882.46 C1336.81 1433.45, 1720.62 996.18, 2559.55 38.71 M956.8 1882.46 C1580.4 1147.89, 2209.35 423.41, 2559.55 38.71 M978.06 1882.4 C1431.98 1363.84, 1876.7 849.73, 2574.9 45.43 M978.06 1882.4 C1374.19 1426.42, 1764.33 977.84, 2574.9 45.43 M999.32 1882.33 C1539.19 1249.66, 2087.31 622.04, 2590.26 52.16 M999.32 1882.33 C1322.6 1493.27, 1656.61 1108.54, 2590.26 52.16 M1020.58 1882.26 C1395.43 1466.27, 1763.5 1041.58, 2605.61 58.88 M1020.58 1882.26 C1588.32 1236.25, 2151.19 588.22, 2605.61 58.88 M1041.84 1882.19 C1544.37 1317.9, 2044.89 744.23, 2621.63 64.85 M1041.84 1882.19 C1510.32 1356.44, 1968.52 828.02, 2621.63 64.85 M1063.1 1882.12 C1460.92 1415.32, 1867.96 946.02, 2635.01 73.84 M1063.1 1882.12 C1606.31 1247.33, 2157.33 613, 2635.01 73.84 M1083.7 1882.81 C1604.28 1283.15, 2122.66 689.95, 2648.4 82.82 M1083.7 1882.81 C1681.47 1189.3, 2279.77 502.16, 2648.4 82.82 M1104.96 1882.74 C1614.86 1306.15, 2124.64 719.57, 2662.44 91.06 M1104.96 1882.74 C1594.22 1313, 2082.19 751.83, 2662.44 91.06 M1126.22 1882.67 C1577.03 1368, 2032.9 843.78, 2675.83 100.04 M1126.22 1882.67 C1675.87 1268.01, 2216.17 647.37, 2675.83 100.04 M1147.48 1882.6 C1529.51 1460.63, 1894.98 1039.44, 2687.91 110.54 M1147.48 1882.6 C1677.51 1272.49, 2200.11 671.89, 2687.91 110.54 M1168.74 1882.53 C1556.23 1447.28, 1940.87 1006.32, 2699.98 121.04 M1168.74 1882.53 C1738.6 1230.76, 2304.89 578.64, 2699.98 121.04 M1190 1882.46 C1520.04 1481.1, 1863.91 1084.31, 2710.09 133.8 M1190 1882.46 C1717.81 1280.02, 2233.53 684.95, 2710.09 133.8 M1211.26 1882.39 C1780.02 1215.39, 2349.54 558.34, 2720.85 145.81 M1211.26 1882.39 C1714.3 1293.12, 2228.88 700.15, 2720.85 145.81 M1232.52 1882.32 C1777.28 1257.95, 2318.34 634.49, 2732.27 157.06 M1232.52 1882.32 C1600.54 1464.75, 1967.35 1043.98, 2732.27 157.06 M1253.78 1882.25 C1825.64 1216.85, 2404.59 552.7, 2741.72 170.57 M1253.78 1882.25 C1665.99 1411.19, 2072.13 943.32, 2741.72 170.57 M1275.04 1882.18 C1776.98 1301.05, 2288.68 710.68, 2749.21 186.35 M1275.04 1882.18 C1856.01 1209.32, 2438.59 539.28, 2749.21 186.35 M1296.3 1882.12 C1764.04 1341.28, 2243.56 792.96, 2757.35 201.38 M1296.3 1882.12 C1721.3 1398.91, 2148.44 905.72, 2757.35 201.38 M1316.91 1882.8 C1775.65 1338.89, 2246.23 798.93, 2765.48 216.4 M1316.91 1882.8 C1836.74 1297.16, 2347.46 709.38, 2765.48 216.4 M1338.17 1882.73 C1876.96 1266.02, 2417.04 645.29, 2775.59 229.16 M1338.17 1882.73 C1680.42 1473.11, 2027.55 1073.54, 2775.59 229.16 M1359.43 1882.66 C1722.82 1445.16, 2096.11 1014.65, 2781.76 246.45 M1359.43 1882.66 C1761.37 1411.14, 2175.48 935.69, 2781.76 246.45 M1380.69 1882.59 C1738.71 1472.49, 2084.57 1075.76, 2785.97 266.01 M1380.69 1882.59 C1759.06 1444.24, 2148.01 995.22, 2785.97 266.01 M1401.95 1882.53 C1916.16 1279.8, 2433.81 684.01, 2790.82 284.81 M1401.95 1882.53 C1669.83 1571.05, 1949.71 1248.96, 2790.82 284.81 M1423.21 1882.46 C1970.11 1258.58, 2507.8 637.27, 2796.34 302.85 M1423.21 1882.46 C1794.88 1447.13, 2169.77 1016.15, 2796.34 302.85 M1444.47 1882.39 C1837.16 1433.22, 2232.09 979.22, 2804.48 317.87 M1444.47 1882.39 C1845.4 1433.06, 2238.91 981.11, 2804.48 317.87 M1465.73 1882.32 C1998.01 1269.06, 2529.05 657.73, 2808.68 337.43 M1465.73 1882.32 C1758.91 1535.65, 2051.44 1198.82, 2808.68 337.43 M1486.99 1882.25 C1873.72 1436.55, 2269.62 981.56, 2808.29 362.26 M1486.99 1882.25 C1972.74 1315.03, 2470.13 742.54, 2808.29 362.26 M1508.25 1882.18 C1992.5 1313.83, 2482.82 752.81, 2810.53 384.08 M1508.25 1882.18 C1801.16 1563.06, 2082.62 1238.6, 2810.53 384.08 M1529.51 1882.11 C1928.12 1436.88, 2314.44 988.62, 2812.1 406.65 M1529.51 1882.11 C1907.43 1437.02, 2293.39 994.14, 2812.1 406.65 M1550.11 1882.8 C2036.22 1322.32, 2518.96 765.16, 2814.34 428.47 M1550.11 1882.8 C1916.1 1454.12, 2280.05 1035.55, 2814.34 428.47 M1571.37 1882.73 C1888.26 1515.27, 2198.21 1155.5, 2819.2 447.27 M1571.37 1882.73 C1968.76 1431.87, 2361.39 979.58, 2819.2 447.27 M1592.63 1882.66 C1841.28 1603.43, 2091.41 1315.78, 2819.46 471.35 M1592.63 1882.66 C2044.66 1361.21, 2499.35 838.35, 2819.46 471.35 M1613.89 1882.59 C1996.49 1440.12, 2376.69 1002.1, 2819.73 495.43 M1613.89 1882.59 C1966.58 1476.74, 2312.66 1079.06, 2819.73 495.43 M1635.15 1882.52 C2071.34 1394.44, 2498.52 902.82, 2819.34 520.27 M1635.15 1882.52 C1995.78 1460.5, 2366.43 1034.2, 2819.34 520.27 M1656.41 1882.45 C2022.45 1453.77, 2393.97 1025.77, 2819.61 544.35 M1656.41 1882.45 C2007.57 1480.84, 2357.68 1078.37, 2819.61 544.35 M1677.67 1882.38 C2038.4 1477.12, 2394.12 1066.99, 2819.87 568.43 M1677.67 1882.38 C1998.56 1517.46, 2321.12 1144.04, 2819.87 568.43 M1698.93 1882.31 C2040.59 1494.62, 2383.48 1104.2, 2819.48 593.27 M1698.93 1882.31 C1991.29 1543.78, 2279.51 1212.25, 2819.48 593.27 M1720.19 1882.25 C1981.71 1579.65, 2248.51 1274.51, 2819.75 617.35 M1720.19 1882.25 C2117.95 1420.24, 2519.87 957.24, 2819.75 617.35 M1741.45 1882.18 C2121.25 1432.82, 2504.86 993, 2819.36 642.19 M1741.45 1882.18 C2043.31 1538.21, 2337.33 1200.95, 2819.36 642.19 M1762.71 1882.11 C2066.34 1545.72, 2361.65 1202.4, 2819.63 666.27 M1762.71 1882.11 C2138.41 1452.02, 2514.14 1018.73, 2819.63 666.27 M1783.32 1882.79 C2179.65 1422.72, 2579.23 962.33, 2819.89 690.35 M1783.32 1882.79 C2075.57 1552.75, 2362.47 1221.66, 2819.89 690.35 M1804.58 1882.72 C2095.57 1544.52, 2382.63 1214.83, 2819.5 715.19 M1804.58 1882.72 C2182.97 1451.06, 2557.36 1021.42, 2819.5 715.19 M1825.84 1882.66 C2164.93 1491.41, 2510.07 1093.32, 2819.77 739.27 M1825.84 1882.66 C2042.57 1630.35, 2258.92 1383.12, 2819.77 739.27 M1847.1 1882.59 C2077.08 1610.23, 2314.21 1336.46, 2819.38 764.11 M1847.1 1882.59 C2067.34 1615.26, 2295.08 1351.81, 2819.38 764.11 M1868.36 1882.52 C2095.67 1637.46, 2311.2 1387.99, 2819.64 788.19 M1868.36 1882.52 C2112.38 1598.77, 2353.92 1320.78, 2819.64 788.19 M1889.62 1882.45 C2151.46 1580.07, 2417.35 1269.88, 2819.91 812.27 M1889.62 1882.45 C2174.54 1566.92, 2453.46 1246.89, 2819.91 812.27 M1910.88 1882.38 C2136.16 1630.12, 2358.75 1373.35, 2819.52 837.11 M1910.88 1882.38 C2249.41 1493.52, 2584.31 1108.45, 2819.52 837.11 M1932.14 1882.31 C2184.59 1595.55, 2434.55 1307.69, 2819.79 861.19 M1932.14 1882.31 C2123.03 1650.73, 2320.12 1425.9, 2819.79 861.19 M1953.4 1882.24 C2168.27 1629.34, 2387.53 1376.04, 2819.4 886.02 M1953.4 1882.24 C2262.11 1527.74, 2567.82 1176.12, 2819.4 886.02 M1974.66 1882.17 C2160.6 1669.29, 2346.53 1460.15, 2819.66 910.11 M1974.66 1882.17 C2285.78 1521.87, 2605.74 1155.15, 2819.66 910.11 M1995.92 1882.1 C2273.56 1552.57, 2554.98 1227.72, 2819.93 934.19 M1995.92 1882.1 C2172.45 1681.88, 2347.77 1478.58, 2819.93 934.19 M2016.52 1882.79 C2196.92 1671.3, 2380.59 1458.97, 2819.54 959.02 M2016.52 1882.79 C2230.32 1638.34, 2439.37 1396.28, 2819.54 959.02 M2037.78 1882.72 C2218.96 1671.73, 2401.1 1462.51, 2819.81 983.11 M2037.78 1882.72 C2330.61 1537.52, 2629.01 1196.38, 2819.81 983.11 M2059.04 1882.65 C2351.16 1552.57, 2639.94 1223.9, 2820.07 1007.19 M2059.04 1882.65 C2266.38 1638.11, 2479.82 1393.8, 2820.07 1007.19 M2080.3 1882.58 C2288.28 1647.65, 2497.24 1408.29, 2819.68 1032.02 M2080.3 1882.58 C2294.27 1637.49, 2508.83 1390.55, 2819.68 1032.02 M2101.56 1882.51 C2293.62 1655.65, 2486.76 1433.59, 2819.95 1056.11 M2101.56 1882.51 C2355.76 1589.29, 2610.69 1294.67, 2819.95 1056.11 M2122.83 1882.44 C2326.17 1651.67, 2522.71 1424.6, 2819.56 1080.94 M2122.83 1882.44 C2258.4 1715.43, 2397.67 1554.9, 2819.56 1080.94 M2144.09 1882.38 C2297.55 1704.4, 2449.51 1525.34, 2819.83 1105.02 M2144.09 1882.38 C2369.63 1628.66, 2591.66 1373.64, 2819.83 1105.02 M2165.35 1882.31 C2333.5 1684.8, 2503.41 1488.27, 2820.09 1129.11 M2165.35 1882.31 C2414.28 1588.27, 2664.91 1297.7, 2820.09 1129.11 M2186.61 1882.24 C2396.71 1645.73, 2603.11 1407.4, 2819.7 1153.94 M2186.61 1882.24 C2406.94 1625.06, 2630.07 1369.04, 2819.7 1153.94 M2207.87 1882.17 C2379.64 1690.45, 2551.5 1495.24, 2819.97 1178.02 M2207.87 1882.17 C2409.69 1654.4, 2610.5 1423.41, 2819.97 1178.02 M2229.13 1882.1 C2443.2 1629.84, 2664.35 1377.11, 2819.58 1202.86 M2229.13 1882.1 C2407.93 1677.13, 2582.72 1474.88, 2819.58 1202.86 M2249.73 1882.78 C2379.86 1732.6, 2509.87 1586.3, 2819.85 1226.94 M2249.73 1882.78 C2433.67 1664.62, 2622.5 1447.79, 2819.85 1226.94 M2270.99 1882.72 C2437.09 1692.19, 2597.68 1504.41, 2820.11 1251.02 M2270.99 1882.72 C2466.03 1660.2, 2657.48 1439.35, 2820.11 1251.02 M2292.25 1882.65 C2415.61 1739.82, 2539.68 1600.06, 2819.72 1275.86 M2292.25 1882.65 C2463.2 1688.71, 2629.15 1496.5, 2819.72 1275.86 M2313.51 1882.58 C2497.81 1667.46, 2686.35 1451.34, 2819.99 1299.94 M2313.51 1882.58 C2423.98 1755.23, 2531.19 1632.02, 2819.99 1299.94 M2334.77 1882.51 C2461.45 1737.06, 2591.78 1590.2, 2819.6 1324.78 M2334.77 1882.51 C2437.8 1760.2, 2542.48 1637.52, 2819.6 1324.78 M2356.03 1882.44 C2450.7 1772.6, 2545.22 1664.06, 2819.86 1348.86 M2356.03 1882.44 C2491.84 1722.67, 2631.2 1562.65, 2819.86 1348.86 M2378.6 1880.86 C2518.95 1715.22, 2660.3 1553.66, 2820.13 1372.94 M2378.6 1880.86 C2547.24 1684.94, 2715.32 1489.81, 2820.13 1372.94 M2401.18 1879.28 C2537.2 1721.29, 2675.9 1561.73, 2819.74 1397.78 M2401.18 1879.28 C2543.52 1713.12, 2688.78 1548.46, 2819.74 1397.78 M2424.4 1876.95 C2519.97 1770.67, 2609.51 1666.06, 2823.94 1417.33 M2424.4 1876.95 C2573.28 1702.72, 2724.42 1528.64, 2823.94 1417.33 M2446.98 1875.37 C2534.29 1779.33, 2621.33 1680.71, 2822.9 1442.92 M2446.98 1875.37 C2598.6 1703.47, 2747.78 1531.3, 2822.9 1442.92 M2464.96 1879.08 C2557.64 1772.64, 2648.26 1668.39, 2819.23 1471.53 M2464.96 1879.08 C2600.77 1722.08, 2738.55 1563.75, 2819.23 1471.53 M2502.62 1860.14 C2601.85 1753.1, 2696.03 1640.1, 2815.56 1500.14 M2502.62 1860.14 C2571.63 1782.27, 2640.96 1703.26, 2815.56 1500.14 M2531.09 1851.77 C2622.37 1746.9, 2710.78 1645.73, 2812.54 1528 M2531.09 1851.77 C2589.79 1786.2, 2645.53 1719.85, 2812.54 1528 M2553.01 1850.94 C2635.72 1759.24, 2714.96 1664.95, 2812.81 1552.08 M2553.01 1850.94 C2627.13 1764.76, 2703.21 1677.84, 2812.81 1552.08 M2591.33 1831.25 C2659.83 1753.44, 2729.13 1674.39, 2803.89 1586.73 M2591.33 1831.25 C2642.09 1771.7, 2693.45 1711.24, 2803.89 1586.73 M2630.3 1810.81 C2681.32 1749.36, 2733.39 1693.37, 2794.32 1622.13 M2630.3 1810.81 C2664.57 1772.51, 2698.84 1732.76, 2794.32 1622.13 M148.47 1786.35 C148.47 1786.35, 148.47 1786.35, 148.47 1786.35 M148.47 1786.35 C148.47 1786.35, 148.47 1786.35, 148.47 1786.35 M222.36 1829.38 C180.76 1786.39, 133.96 1746.06, 81.23 1706.7 M222.36 1829.38 C180.19 1791.72, 141.34 1759.43, 81.23 1706.7 M263.8 1844.21 C196.1 1783.95, 130.46 1727.52, 60.78 1667.73 M263.8 1844.21 C202.27 1789.5, 141.46 1734.95, 60.78 1667.73 M291.66 1847.22 C219.85 1787.55, 143.59 1721.82, 41.09 1629.41 M291.66 1847.22 C203.9 1773.18, 118.68 1698.85, 41.09 1629.41 M324.04 1854.17 C213.92 1758.67, 110.24 1669.16, 31.21 1599.62 M324.04 1854.17 C253.3 1793.48, 185.87 1733.66, 31.21 1599.62 M361.71 1865.71 C263.73 1775.35, 161.28 1687.41, 31.9 1579.01 M361.71 1865.71 C254.55 1771.22, 149.45 1679.32, 31.9 1579.01 M388.81 1868.07 C295.65 1791.39, 202.81 1711.76, 12.21 1540.7 M388.81 1868.07 C241.36 1737.75, 94.17 1609.32, 12.21 1540.7 M415.91 1870.43 C264.49 1735.29, 116.02 1604.62, 9.12 1516.81 M415.91 1870.43 C299.01 1767.69, 182.29 1666.99, 9.12 1516.81 M443.01 1872.79 C326.85 1769.28, 206.94 1666.23, 5.28 1492.27 M443.01 1872.79 C327.91 1771.63, 212.38 1670.68, 5.28 1492.27 M467.09 1872.52 C357.38 1779.68, 246.85 1687.16, 14.26 1478.88 M467.09 1872.52 C373.1 1792.3, 279.99 1711.97, 14.26 1478.88 M491.93 1872.91 C301.44 1708.04, 113.87 1543.18, 13.44 1456.97 M491.93 1872.91 C316.62 1719.2, 142.88 1569.18, 13.44 1456.97 M516.01 1872.64 C318.46 1700.36, 116.69 1526.34, 12.62 1435.05 M516.01 1872.64 C333.47 1712.93, 147.5 1553.21, 12.62 1435.05 M540.09 1872.38 C332.67 1697.06, 128.4 1518.83, 1.98 1404.61 M540.09 1872.38 C427.47 1773.34, 318.23 1678.85, 1.98 1404.61 M564.93 1872.77 C417.71 1746.35, 274.51 1619.72, 1.91 1383.35 M564.93 1872.77 C347.5 1687.24, 134.23 1501.95, 1.91 1383.35 M589.01 1872.5 C449.72 1744.03, 305.18 1617.68, 1.84 1362.09 M589.01 1872.5 C399.4 1704, 208.09 1537.49, 1.84 1362.09 M613.84 1872.89 C380.66 1671.47, 150.41 1471.97, 1.77 1340.83 M613.84 1872.89 C391.21 1677.25, 169.01 1484.82, 1.77 1340.83 M637.93 1872.62 C490.72 1747.52, 342.25 1620.99, 1.7 1319.57 M637.93 1872.62 C459.46 1717.03, 278.73 1559.62, 1.7 1319.57 M662.01 1872.36 C508.29 1732.37, 350.14 1595.49, 2.39 1298.96 M662.01 1872.36 C429.4 1670.28, 199.54 1470.04, 2.39 1298.96 M686.84 1872.75 C537.82 1740.04, 390.17 1612.61, 2.32 1277.7 M686.84 1872.75 C522.36 1725.2, 354.72 1580.48, 2.32 1277.7 M710.92 1872.48 C524 1711.73, 334.13 1546.89, 2.25 1256.44 M710.92 1872.48 C505.41 1696.91, 299.97 1519.41, 2.25 1256.44 M735.76 1872.87 C500.61 1668.34, 270.11 1466.07, 2.18 1235.18 M735.76 1872.87 C448.83 1623.67, 159.3 1371.36, 2.18 1235.18 M759.84 1872.6 C597.1 1735.22, 430.7 1592.44, 2.11 1213.92 M759.84 1872.6 C570.81 1698.63, 376.99 1530.36, 2.11 1213.92 M783.92 1872.34 C569.05 1682.77, 349.85 1490.13, 2.05 1192.66 M783.92 1872.34 C526.5 1651.1, 267.04 1425.96, 2.05 1192.66 M808.76 1872.73 C506.62 1607.62, 198.95 1339.12, 1.98 1171.4 M808.76 1872.73 C629.56 1710.89, 446.48 1550.33, 1.98 1171.4 M832.84 1872.46 C592.94 1658.78, 352.44 1451.74, 1.91 1150.14 M832.84 1872.46 C609.24 1671.42, 383.44 1473.56, 1.91 1150.14 M857.68 1872.85 C534.48 1586.66, 212.05 1303.79, 1.84 1128.88 M857.68 1872.85 C598.09 1649.01, 337.23 1422.82, 1.84 1128.88 M881.76 1872.59 C575.06 1597.6, 263.05 1325.51, 1.77 1107.62 M881.76 1872.59 C660.03 1678.99, 441.71 1489.39, 1.77 1107.62 M905.84 1872.32 C567.09 1580.26, 233.3 1292.67, 1.7 1086.36 M905.84 1872.32 C640.83 1636.19, 371.5 1402.26, 1.7 1086.36 M930.68 1872.71 C622.4 1599.76, 313.77 1327.55, 2.39 1065.76 M930.68 1872.71 C650.45 1623.42, 368.55 1378.77, 2.39 1065.76 M954.76 1872.44 C716.6 1671.12, 481.21 1464.94, 2.32 1044.5 M954.76 1872.44 C634.34 1584.14, 309.88 1302.11, 2.32 1044.5 M979.6 1872.83 C679.46 1607.52, 374.98 1342.72, 2.25 1023.24 M979.6 1872.83 C687.1 1623.38, 392.18 1366.69, 2.25 1023.24 M1003.68 1872.57 C753.95 1659.56, 511.25 1448.52, 2.18 1001.98 M1003.68 1872.57 C722.65 1628.51, 447.21 1387.74, 2.18 1001.98 M1027.76 1872.3 C814.42 1682.58, 603.04 1498.27, 2.11 980.72 M1027.76 1872.3 C691.59 1576.83, 359.89 1288.38, 2.11 980.72 M1052.6 1872.69 C726.98 1590.23, 395.53 1302.34, 2.04 959.46 M1052.6 1872.69 C770.96 1627.94, 493.11 1386.9, 2.04 959.46 M1076.68 1872.42 C679.98 1526.14, 282.01 1179.2, 1.97 938.2 M1076.68 1872.42 C792.03 1628.3, 514.7 1386.27, 1.97 938.2 M1101.52 1872.81 C707.88 1524.03, 311.48 1181.73, 1.9 916.93 M1101.52 1872.81 C682.1 1498.29, 259.82 1130.36, 1.9 916.93 M1125.6 1872.55 C685.65 1477.7, 242.77 1095.35, 1.83 895.67 M1125.6 1872.55 C884.71 1658.42, 638.23 1444.6, 1.83 895.67 M1149.68 1872.28 C906.89 1670.13, 665.67 1459.31, 1.77 874.41 M1149.68 1872.28 C889.77 1640.39, 631.25 1416.65, 1.77 874.41 M1174.52 1872.67 C820.47 1568.69, 468.4 1264.45, 1.7 853.15 M1174.52 1872.67 C784.7 1538.99, 399.76 1204.84, 1.7 853.15 M1198.6 1872.4 C929.09 1630.29, 657.25 1393.31, 2.38 832.55 M1198.6 1872.4 C846.05 1561.85, 493.6 1253.53, 2.38 832.55 M1223.43 1872.79 C796.21 1496.85, 375.73 1129.1, 2.31 811.29 M1223.43 1872.79 C833.33 1521.33, 436.16 1175.92, 2.31 811.29 M1247.52 1872.53 C857.48 1535.1, 467.4 1195.65, 2.24 790.03 M1247.52 1872.53 C965.56 1636.96, 691.03 1398.96, 2.24 790.03 M1272.35 1872.92 C990.93 1628.29, 710.59 1382.16, 2.18 768.77 M1272.35 1872.92 C811.23 1472.57, 341.63 1064.68, 2.18 768.77 M1296.43 1872.65 C903.85 1526.76, 512.54 1188.93, 2.11 747.51 M1296.43 1872.65 C861.41 1484.48, 425.91 1105.78, 2.11 747.51 M1320.51 1872.38 C978.47 1588.62, 643.87 1300.22, 2.04 726.25 M1320.51 1872.38 C1015.84 1607.82, 711.84 1341.77, 2.04 726.25 M1345.35 1872.77 C865.42 1456.52, 382.52 1034.54, 1.97 704.99 M1345.35 1872.77 C939.55 1521.9, 538.95 1173.94, 1.97 704.99 M1369.43 1872.51 C1083.71 1640.34, 804.99 1398.79, 1.9 683.73 M1369.43 1872.51 C954.09 1517.21, 546.42 1162.95, 1.9 683.73 M1394.27 1872.9 C842.54 1396.11, 302.45 924.81, 1.83 662.47 M1394.27 1872.9 C997.9 1526.27, 608.71 1188.97, 1.83 662.47 M1418.35 1872.63 C1053.3 1539.15, 678.9 1213.71, 1.76 641.21 M1418.35 1872.63 C891.88 1418.88, 365.5 960.66, 1.76 641.21 M1442.43 1872.37 C1121.82 1576.34, 789.58 1286.16, 1.69 619.95 M1442.43 1872.37 C924.22 1412.13, 404.01 961.27, 1.69 619.95 M1467.27 1872.75 C1084.79 1528.74, 694.32 1190.3, 2.38 599.34 M1467.27 1872.75 C1077.82 1535.61, 680.38 1189.6, 2.38 599.34 M1491.35 1872.49 C1120.86 1557.83, 748.13 1233.95, 2.31 578.08 M1491.35 1872.49 C967.14 1433.66, 450.68 983.76, 2.31 578.08 M1516.19 1872.88 C1114.08 1505.4, 701.07 1144.87, 2.24 556.82 M1516.19 1872.88 C1155.71 1562.01, 805.36 1255.47, 2.24 556.82 M1540.27 1872.61 C983.94 1382.86, 432.32 904.36, 2.17 535.56 M1540.27 1872.61 C992.86 1404.29, 447.58 930.58, 2.17 535.56 M1564.35 1872.35 C962.26 1364.83, 367.34 847.69, 2.1 514.3 M1564.35 1872.35 C1092.92 1462.44, 619.25 1050.82, 2.1 514.3 M1589.19 1872.74 C979.18 1335.02, 357.37 795.95, 2.03 493.04 M1589.19 1872.74 C1239.73 1588.22, 897.19 1290.78, 2.03 493.04 M1613.27 1872.47 C1101.97 1427.99, 580.35 974.54, 1.96 471.78 M1613.27 1872.47 C1058.61 1374.53, 493.16 884.93, 1.96 471.78 M1638.11 1872.86 C1117.26 1402.6, 590.33 945.59, 10.2 457.74 M1638.11 1872.86 C1187.52 1473.94, 735.43 1080.22, 10.2 457.74 M1662.19 1872.59 C1222.57 1487.75, 783.23 1102.52, 10.88 437.14 M1662.19 1872.59 C1235.71 1497.07, 816.03 1131.89, 10.88 437.14 M1686.27 1872.33 C1248.33 1475.43, 798.33 1082.53, 4.02 409.97 M1686.27 1872.33 C1334.28 1559.36, 987.26 1257.49, 4.02 409.97 M1711.11 1872.72 C1346.97 1571.76, 989.39 1261.49, 6.22 390.68 M1711.11 1872.72 C1183.75 1416.5, 651.06 953.16, 6.22 390.68 M1735.19 1872.45 C1276.95 1485.87, 821.47 1092.68, 8.41 371.39 M1735.19 1872.45 C1071.81 1294.26, 414.45 723.06, 8.41 371.39 M1760.02 1872.84 C1079.34 1282.59, 393.8 686.13, 10.61 352.09 M1760.02 1872.84 C1338.96 1503.34, 926.65 1145.1, 10.61 352.09 M1784.11 1872.57 C1274.9 1437.17, 763.7 991.01, 12.8 332.8 M1784.11 1872.57 C1261.67 1415.12, 738.64 959.48, 12.8 332.8 M1808.19 1872.31 C1312.68 1428.85, 809.27 989.12, 17.26 315.48 M1808.19 1872.31 C1173.17 1336.88, 539.88 786.07, 17.26 315.48 M1833.02 1872.7 C1370.86 1467.86, 905.37 1062.64, 21.72 298.16 M1833.02 1872.7 C1183.26 1299.83, 528.56 731.44, 21.72 298.16 M1857.11 1872.43 C1167.68 1280.38, 472.6 676.6, 26.18 280.83 M1857.11 1872.43 C1463.28 1542.77, 1080.14 1210.4, 26.18 280.83 M1881.94 1872.82 C1479.07 1544.51, 1086.41 1203.34, 29.88 262.85 M1881.94 1872.82 C1319.62 1370.34, 754.96 878.49, 29.88 262.85 M1906.02 1872.55 C1477.22 1512.36, 1049.98 1142.19, 36.61 247.5 M1906.02 1872.55 C1229.26 1293.73, 554.54 706.47, 36.61 247.5 M1930.1 1872.29 C1296.96 1331.72, 663.75 780.87, 43.33 232.14 M1930.1 1872.29 C1236.11 1268.97, 539.83 663.45, 43.33 232.14 M1954.94 1872.68 C1208.06 1218.83, 448.36 560.11, 50.05 216.78 M1954.94 1872.68 C1228.74 1245.3, 496 607.31, 50.05 216.78 M1979.02 1872.41 C1322.7 1308.12, 659.67 734.75, 56.02 200.77 M1979.02 1872.41 C1394.72 1363.55, 798.64 845.43, 56.02 200.77 M2003.86 1872.8 C1438.47 1382.82, 862.99 882.46, 65.01 187.39 M2003.86 1872.8 C1470.25 1426.36, 945.08 968.78, 65.01 187.39 M2027.94 1872.53 C1480.45 1400.76, 923.32 914.49, 74 174 M2027.94 1872.53 C1638.05 1512.89, 1242.58 1170.14, 74 174 M2052.02 1872.27 C1327.69 1240.85, 607.28 614.29, 82.23 159.95 M2052.02 1872.27 C1609.35 1479.83, 1164.3 1092.7, 82.23 159.95 M2076.86 1872.66 C1392.96 1290.03, 713.03 698.6, 91.22 146.57 M2076.86 1872.66 C1623.4 1463.2, 1157.79 1059.59, 91.22 146.57 M2100.94 1872.39 C1523.89 1397.37, 959.61 905.58, 101.72 134.49 M2100.94 1872.39 C1563.43 1399.19, 1022.24 929.44, 101.72 134.49 M2125.78 1872.78 C1653.68 1472.68, 1181.82 1063.4, 112.21 122.42 M2125.78 1872.78 C1490.32 1317.22, 866.67 775.63, 112.21 122.42 M2149.86 1872.52 C1428.64 1233.66, 708.99 606.58, 122.71 110.34 M2149.86 1872.52 C1667.45 1454.28, 1175.17 1027.14, 122.71 110.34 M2174.7 1872.91 C1743.24 1492.27, 1304.16 1111.44, 135.47 100.23 M2174.7 1872.91 C1654.9 1436.25, 1143.5 991.75, 135.47 100.23 M2198.78 1872.64 C1509.91 1294.68, 834.13 707.06, 147.48 89.47 M2198.78 1872.64 C1390.95 1177.34, 581.74 473.24, 147.48 89.47 M2222.86 1872.37 C1652.38 1378.96, 1094.72 893.61, 158.73 78.05 M2222.86 1872.37 C1407.51 1173.2, 600.85 472.23, 158.73 78.05 M2247.7 1872.76 C1454.55 1190.81, 656.38 494.36, 172.24 68.6 M2247.7 1872.76 C1413.97 1146.94, 591.87 433.59, 172.24 68.6 M2271.78 1872.5 C1603.59 1299.09, 938.92 720.91, 188.02 61.12 M2271.78 1872.5 C1479.81 1169.51, 681.96 476.52, 188.02 61.12 M2296.61 1872.89 C1591.33 1267.79, 894.12 660.57, 203.05 52.98 M2296.61 1872.89 C1601.26 1272.85, 909.76 671.51, 203.05 52.98 M2320.7 1872.62 C1870.45 1479.14, 1404.64 1073.91, 218.07 44.84 M2320.7 1872.62 C1494.39 1147.14, 664.76 426.68, 218.07 44.84 M2344.78 1872.35 C1874.29 1451.53, 1397.35 1038.18, 230.84 34.73 M2344.78 1872.35 C1708.75 1335.89, 1080.41 788.27, 230.84 34.73 M2372.63 1875.37 C1602.38 1209.83, 829.91 538.65, 248.12 28.56 M2372.63 1875.37 C1730.83 1310, 1080.04 743.87, 248.12 28.56 M2394.45 1873.13 C1671.6 1244.9, 949.5 614.68, 265.41 22.39 M2394.45 1873.13 C1940.13 1480.95, 1486.48 1086.41, 265.41 22.39 M2417.02 1871.55 C1850.57 1363.43, 1277.56 863.14, 287.99 20.81 M2417.02 1871.55 C1724.45 1283.65, 1046.41 695.56, 287.99 20.81 M2438.84 1869.32 C1596.75 1145.22, 751.95 410.61, 306.79 15.95 M2438.84 1869.32 C1996.76 1469.47, 1550.7 1082.55, 306.79 15.95 M2456.88 1863.81 C2038.03 1483.41, 1604.96 1109.66, 326.34 11.75 M2456.88 1863.81 C1736.51 1220.9, 1004.64 584.43, 326.34 11.75 M2477.19 1860.26 C1741.49 1214.08, 1010.06 576.05, 341.36 3.61 M2477.19 1860.26 C1995.57 1418.49, 1501.01 989.54, 341.36 3.61 M2497.5 1856.71 C1734.35 1196.03, 984.34 544.68, 361.67 0.06 M2497.5 1856.71 C2048.08 1468.86, 1594.76 1075.58, 361.67 0.06 M2512.53 1848.57 C1731.64 1170.82, 953.59 495.87, 387.26 1.11 M2512.53 1848.57 C1998.19 1416.77, 1483.89 970.71, 387.26 1.11 M2530.57 1843.06 C2002.42 1403.01, 1482.72 950.5, 410.59 0.19 M2530.57 1843.06 C1965.31 1354.25, 1394.64 857.9, 410.59 0.19 M2553.14 1841.48 C1938.33 1302.31, 1332.13 774.41, 433.92 -0.73 M2553.14 1841.48 C2086.92 1435.85, 1622.4 1031.9, 433.92 -0.73 M2569.68 1834.65 C1848.3 1211.7, 1115.66 576.21, 456.49 -2.31 M2569.68 1834.65 C1784.74 1141.79, 992.59 454.49, 456.49 -2.31 M2586.97 1828.48 C1818.05 1168.8, 1065.6 512.93, 475.29 -7.17 M2586.97 1828.48 C1834.66 1163.28, 1080.7 507.54, 475.29 -7.17 M2600.48 1819.03 C2064.93 1365.65, 1540.97 910.97, 499.37 -7.44 M2600.48 1819.03 C1944.71 1275.64, 1302.19 716.07, 499.37 -7.44 M2615.51 1810.89 C2048.78 1336.22, 1492.32 852.26, 524.21 -7.05 M2615.51 1810.89 C2061.12 1320.61, 1509.12 840.56, 524.21 -7.05 M2633.55 1805.38 C2039.31 1274.79, 1442.09 755.06, 548.29 -7.31 M2633.55 1805.38 C1878.65 1166.74, 1139.36 522.92, 548.29 -7.31 M2647.07 1795.93 C1956.45 1173.44, 1255.26 562.22, 573.12 -6.92 M2647.07 1795.93 C1892.91 1124.88, 1134.19 464.32, 573.12 -6.92 M2660.58 1786.48 C2000.05 1192.84, 1336.51 616.26, 597.21 -7.19 M2660.58 1786.48 C1977.52 1203.06, 1298.99 612.4, 597.21 -7.19 M2672.59 1775.71 C1992.19 1179.03, 1317.85 594.38, 621.29 -7.46 M2672.59 1775.71 C2051.62 1227.2, 1431.46 689.46, 621.29 -7.46 M2684.59 1764.95 C1953.43 1145.35, 1228.93 514.73, 646.12 -7.07 M2684.59 1764.95 C1960.11 1143.82, 1244.64 522, 646.12 -7.07 M2698.11 1755.5 C2224.04 1367.86, 1758.58 964.18, 670.21 -7.33 M2698.11 1755.5 C2043.35 1166.41, 1376.07 586.07, 670.21 -7.33 M2708.61 1743.42 C2071.19 1172.7, 1425.97 611.04, 695.04 -6.94 M2708.61 1743.42 C2196.23 1291.13, 1671.18 834.46, 695.04 -6.94 M2719.1 1731.35 C2197.98 1283.62, 1663.71 819.71, 719.12 -7.21 M2719.1 1731.35 C2073.01 1180.4, 1432.97 624.54, 719.12 -7.21 M2729.6 1719.27 C2152.52 1218.37, 1584.8 724.38, 743.96 -6.82 M2729.6 1719.27 C2304.43 1354.62, 1882.6 987.5, 743.96 -6.82 M2738.59 1705.88 C2134.36 1185.76, 1542.75 670.07, 768.04 -7.09 M2738.59 1705.88 C2042.38 1083.29, 1333.49 467.46, 768.04 -7.09 M2746.82 1691.84 C2245.02 1248.53, 1750.27 818.3, 792.12 -7.35 M2746.82 1691.84 C2209.68 1235.48, 1669.59 767.02, 792.12 -7.35 M2755.81 1678.45 C2321.89 1305.43, 1883.99 926.74, 816.96 -6.96 M2755.81 1678.45 C2078.86 1093.91, 1395.04 499.11, 816.96 -6.96 M2764.8 1665.07 C2062.07 1073.21, 1372.6 473.61, 841.04 -7.23 M2764.8 1665.07 C2320.16 1264.84, 1862.58 867.95, 841.04 -7.23 M2771.52 1649.71 C2052.3 1047.85, 1347.72 431.91, 865.88 -6.84 M2771.52 1649.71 C2348.89 1283.1, 1933.79 922.69, 865.88 -6.84 M2777.49 1633.7 C2255.16 1166.32, 1735.98 716.4, 889.96 -7.11 M2777.49 1633.7 C2019.09 989.13, 1266.63 335.62, 889.96 -7.11 M2784.21 1618.34 C2219.07 1141.63, 1659.13 650.03, 914.04 -7.37 M2784.21 1618.34 C2243.25 1146.89, 1703.78 678.42, 914.04 -7.37 M2790.94 1602.99 C2395.09 1263.45, 2009.36 929.25, 938.88 -6.98 M2790.94 1602.99 C2095.49 983.65, 1398.64 379.37, 938.88 -6.98 M2795.4 1585.66 C2417.43 1246.45, 2030.79 909.6, 962.96 -7.25 M2795.4 1585.66 C2221.32 1082.17, 1644.53 581.14, 962.96 -7.25 M2799.85 1568.34 C2264.96 1104, 1727.28 635.33, 987.8 -6.86 M2799.85 1568.34 C2242.61 1105.21, 1695.82 628.89, 987.8 -6.86 M2804.31 1551.02 C2197.86 1018.07, 1592.8 495.41, 1011.88 -7.12 M2804.31 1551.02 C2338.47 1135.51, 1868.61 727.86, 1011.88 -7.12 M2808.02 1533.04 C2428.05 1205.46, 2045.42 875.75, 1036.71 -6.74 M2808.02 1533.04 C2417.38 1186.53, 2017.53 839.42, 1036.71 -6.74 M2810.97 1514.4 C2220.59 991.01, 1618.79 470.25, 1060.8 -7 M2810.97 1514.4 C2260.86 1032.45, 1714.76 558.49, 1060.8 -7 M2813.16 1495.11 C2170.91 944.17, 1525.35 380.49, 1084.88 -7.27 M2813.16 1495.11 C2282.06 1042.13, 1745.4 577.01, 1084.88 -7.27 M2815.36 1475.82 C2265.1 994.47, 1702.61 506.46, 1109.71 -6.88 M2815.36 1475.82 C2364.37 1087.78, 1919.03 701.61, 1109.71 -6.88 M2816.8 1455.87 C2277.91 991.73, 1750.01 530.45, 1133.8 -7.14 M2816.8 1455.87 C2409.63 1108.46, 2013.69 764.36, 1133.8 -7.14 M2817.48 1435.26 C2436.22 1110.07, 2050.72 774.63, 1158.63 -6.75 M2817.48 1435.26 C2291.21 972.36, 1758.51 509.87, 1158.63 -6.75 M2818.17 1414.66 C2300.01 971.67, 1785.8 524.09, 1182.71 -7.02 M2818.17 1414.66 C2171.33 840.02, 1523.41 276.15, 1182.71 -7.02 M2821.12 1396.02 C2464.23 1095.55, 2105.36 782.96, 1206.8 -7.29 M2821.12 1396.02 C2296.23 945.03, 1779.72 494.76, 1206.8 -7.29 M2821.81 1375.42 C2208 838.4, 1595.55 305.69, 1231.63 -6.9 M2821.81 1375.42 C2335.86 949.19, 1851.26 528.55, 1231.63 -6.9 M2821.74 1354.16 C2344.8 951.5, 1872.53 539.29, 1255.71 -7.16 M2821.74 1354.16 C2348.68 931.27, 1874.84 519.96, 1255.71 -7.16 M2821.67 1332.9 C2407.6 964.53, 1984.54 597.33, 1280.55 -6.77 M2821.67 1332.9 C2236.24 817.06, 1642.06 299.8, 1280.55 -6.77 M2821.6 1311.64 C2347 888.9, 1874.23 481.33, 1304.63 -7.04 M2821.6 1311.64 C2331.5 887.22, 1835.26 454.9, 1304.63 -7.04 M2821.53 1290.38 C2433.29 958.99, 2044.43 619.76, 1328.71 -7.31 M2821.53 1290.38 C2254.65 787.39, 1683.93 290.91, 1328.71 -7.31 M2821.46 1269.12 C2344.45 865.62, 1873.07 456.31, 1353.55 -6.92 M2821.46 1269.12 C2430.07 922.9, 2035.39 579.35, 1353.55 -6.92 M2821.39 1247.86 C2301.93 796.13, 1778.11 343.36, 1377.63 -7.18 M2821.39 1247.86 C2319.59 816.6, 1813.22 375.27, 1377.63 -7.18 M2821.32 1226.6 C2475.31 921.96, 2134.38 625.14, 1402.47 -6.79 M2821.32 1226.6 C2515.33 953.37, 2205.73 685.37, 1402.47 -6.79 M2821.25 1205.34 C2358.74 808.55, 1904.14 412.82, 1426.55 -7.06 M2821.25 1205.34 C2451.07 876.16, 2078.68 553.41, 1426.55 -7.06 M2821.18 1184.08 C2536.82 931.5, 2251.37 682.31, 1451.39 -6.67 M2821.18 1184.08 C2430.17 854.83, 2045.93 520.62, 1451.39 -6.67 M2821.12 1162.82 C2506.24 887.1, 2191.42 611.81, 1475.47 -6.94 M2821.12 1162.82 C2533.9 918.82, 2242.1 665.23, 1475.47 -6.94 M2821.05 1141.56 C2555.17 913.81, 2281.35 677.64, 1499.55 -7.2 M2821.05 1141.56 C2319.49 701.33, 1817.64 265.75, 1499.55 -7.2 M2821.73 1120.95 C2412.85 775.63, 2011.91 425.2, 1524.39 -6.81 M2821.73 1120.95 C2548.61 895.22, 2280.46 662.64, 1524.39 -6.81 M2821.66 1099.69 C2524.59 840.29, 2219.09 575.73, 1548.47 -7.08 M2821.66 1099.69 C2503.35 813.97, 2184.77 537.17, 1548.47 -7.08 M2821.59 1078.43 C2445.03 755.74, 2068.05 429.62, 1573.31 -6.69 M2821.59 1078.43 C2375.45 697.39, 1929.92 310.62, 1573.31 -6.69 M2821.53 1057.17 C2389.56 675.89, 1958.36 301.51, 1597.39 -6.96 M2821.53 1057.17 C2515.7 803.61, 2213.13 540.67, 1597.39 -6.96 M2821.46 1035.91 C2457.48 731.91, 2101.82 421.95, 1621.47 -7.22 M2821.46 1035.91 C2466.31 726.32, 2104.39 411.97, 1621.47 -7.22 M2821.39 1014.65 C2549 782.96, 2283.93 553.34, 1646.3 -6.83 M2821.39 1014.65 C2423.17 665.38, 2025.41 320.91, 1646.3 -6.83 M2821.32 993.39 C2456.23 684.68, 2091.91 364.31, 1670.39 -7.1 M2821.32 993.39 C2372.14 603.07, 1920.71 210.2, 1670.39 -7.1 M2821.25 972.13 C2398.58 612.94, 1979.7 245.78, 1695.22 -6.71 M2821.25 972.13 C2472.56 679.61, 2128.6 379.13, 1695.22 -6.71 M2821.18 950.87 C2470.32 647.41, 2117.42 342.31, 1719.3 -6.97 M2821.18 950.87 C2487.86 668.78, 2157.77 382.8, 1719.3 -6.97 M2821.11 929.61 C2449.5 611.61, 2081.04 290.47, 1744.14 -6.58 M2821.11 929.61 C2440.29 598.18, 2058.98 266.21, 1744.14 -6.58 M2821.04 908.35 C2403.34 550.13, 1990.06 190.3, 1768.22 -6.85 M2821.04 908.35 C2616.09 718.01, 2403.08 534.56, 1768.22 -6.85 M2820.97 887.09 C2495 599.8, 2169.1 318.77, 1792.3 -7.12 M2820.97 887.09 C2512.23 617.08, 2208.37 352.06, 1792.3 -7.12 M2820.9 865.83 C2452.46 547.52, 2091.38 232, 1817.14 -6.73 M2820.9 865.83 C2414.6 512.4, 2013.47 163.68, 1817.14 -6.73 M2821.59 845.23 C2518.5 581.75, 2218.36 319.4, 1841.22 -6.99 M2821.59 845.23 C2463.72 534.98, 2108.14 226.9, 1841.22 -6.99 M2821.52 823.97 C2455.09 508.13, 2090.79 192.47, 1866.06 -6.6 M2821.52 823.97 C2532.34 564.9, 2240.35 311.47, 1866.06 -6.6 M2821.45 802.71 C2481.44 506.05, 2134.87 205.25, 1890.14 -6.87 M2821.45 802.71 C2637.02 644.04, 2449.85 481, 1890.14 -6.87 M2821.38 781.45 C2496.72 508.12, 2179.74 233.13, 1914.22 -7.14 M2821.38 781.45 C2593.67 583.18, 2366.07 386.42, 1914.22 -7.14 M2821.31 760.19 C2476.77 465.38, 2132.7 163.76, 1939.06 -6.75 M2821.31 760.19 C2585.2 554.89, 2345.79 345.86, 1939.06 -6.75 M2821.25 738.93 C2568.78 528.4, 2317.86 309.82, 1963.14 -7.01 M2821.25 738.93 C2581.23 533.13, 2341.61 323.75, 1963.14 -7.01 M2821.18 717.67 C2583.89 509.64, 2343.82 300.18, 1987.98 -6.62 M2821.18 717.67 C2608.25 537.83, 2395.65 350.96, 1987.98 -6.62 M2821.11 696.41 C2520.72 436.81, 2217.29 173.34, 2012.06 -6.89 M2821.11 696.41 C2540.61 445.43, 2255.32 197.47, 2012.06 -6.89 M2821.04 675.15 C2652.85 524.45, 2485.76 377.18, 2036.9 -6.5 M2821.04 675.15 C2623.74 505.92, 2430.03 337.56, 2036.9 -6.5 M2820.97 653.89 C2602.18 461.26, 2384.24 274.86, 2060.98 -6.77 M2820.97 653.89 C2555.88 430.78, 2294.67 202.01, 2060.98 -6.77 M2820.9 632.62 C2556.88 400.6, 2292.64 171.51, 2085.06 -7.03 M2820.9 632.62 C2562.93 408.37, 2305.42 183.18, 2085.06 -7.03 M2820.83 611.36 C2634.41 453.12, 2449.08 292.54, 2109.9 -6.64 M2820.83 611.36 C2643.24 453.63, 2465.64 298.65, 2109.9 -6.64 M2820.76 590.1 C2576.85 388.71, 2340.15 181.91, 2133.98 -6.91 M2820.76 590.1 C2621.84 414.79, 2418.62 238.35, 2133.98 -6.91 M2821.45 569.5 C2649.87 420.82, 2475.81 267.99, 2158.81 -6.52 M2821.45 569.5 C2570.08 351.91, 2318.61 133.33, 2158.81 -6.52 M2821.38 548.24 C2675.65 418.29, 2526.29 291.54, 2182.9 -6.79 M2821.38 548.24 C2683.88 424.57, 2542.88 301.42, 2182.9 -6.79 M2821.31 526.98 C2581.92 316.82, 2341.93 107.88, 2206.98 -7.05 M2821.31 526.98 C2610.47 336.17, 2396.64 151.03, 2206.98 -7.05 M2821.24 505.72 C2635.81 346.83, 2453.81 190.69, 2231.81 -6.66 M2821.24 505.72 C2652.58 365.93, 2488.17 221.65, 2231.81 -6.66 M2821.17 484.46 C2660.58 344.78, 2499.54 204.65, 2255.89 -6.93 M2821.17 484.46 C2647.96 333.1, 2477.22 185.41, 2255.89 -6.93 M2821.1 463.2 C2658.98 323.91, 2498.67 184.51, 2280.73 -6.54 M2821.1 463.2 C2685.66 345.33, 2550.75 227.61, 2280.73 -6.54 M2815 436.69 C2659.41 296.6, 2502.81 159.46, 2304.81 -6.8 M2815 436.69 C2666.52 309.75, 2517.24 180.18, 2304.81 -6.8 M2812.66 413.46 C2635.17 255.05, 2456.21 99.68, 2328.89 -7.07 M2812.66 413.46 C2661.23 278.92, 2509.66 145.77, 2328.89 -7.07 M2811.09 390.89 C2645.87 248.43, 2481.01 104.8, 2353.73 -6.68 M2811.09 390.89 C2677.73 273.99, 2545.03 157.59, 2353.73 -6.68 M2808.75 367.66 C2678.11 252.71, 2545.44 139.06, 2377.81 -6.95 M2808.75 367.66 C2693.35 260.78, 2573.13 158.73, 2377.81 -6.95 M2812.46 349.68 C2692.52 247.75, 2578.45 146.81, 2404.91 -4.59 M2812.46 349.68 C2659.33 213.72, 2504.87 79.62, 2404.91 -4.59 M2807.86 324.49 C2677.23 210.68, 2547.54 96.56, 2432.01 -2.23 M2807.86 324.49 C2674.15 205.97, 2542.03 89.23, 2432.01 -2.23 M2804.02 299.95 C2722.04 224.98, 2637.71 151.67, 2461.38 2.09 M2804.02 299.95 C2675.54 192.1, 2550.66 83.85, 2461.38 2.09 M2784.33 261.63 C2682.99 169.39, 2578.96 81.15, 2486.22 2.48 M2784.33 261.63 C2667.58 158.51, 2553.12 58.55, 2486.22 2.48 M2772.18 229.87 C2679.28 156.82, 2589.94 76.73, 2520.86 11.4 M2772.18 229.87 C2681.56 151.01, 2589.93 69.95, 2520.86 11.4 M2775.13 211.23 C2729.5 169.52, 2679.6 129.53, 2556.27 20.98 M2775.13 211.23 C2724.31 166.7, 2679.41 125.69, 2556.27 20.98 M2724.5 146.02 C2699.03 120.57, 2672.16 96.47, 2614.31 50.23 M2724.5 146.02 C2701.88 126.5, 2679.21 107.25, 2614.31 50.23" stroke="#4c6ef5" stroke-width="2" fill="none"></path><path d="M469.02 0 M469.02 0 C979.99 -15.22, 1489.84 -13.9, 2343.17 0 M469.02 0 C1060.05 5.25, 1650.41 5.92, 2343.17 0 M2343.17 0 C2655.97 2.6, 2815.49 158.63, 2812.19 469.02 M2343.17 0 C2652.82 -0.99, 2813.31 153.56, 2812.19 469.02 M2812.19 469.02 C2812.55 725.69, 2811.96 980.1, 2812.19 1407.05 M2812.19 469.02 C2811.94 799.54, 2811.53 1129.92, 2812.19 1407.05 M2812.19 1407.05 C2812.09 1721.55, 2658.12 1875.89, 2343.17 1876.06 M2812.19 1407.05 C2814.32 1719.17, 2652.43 1873.5, 2343.17 1876.06 M2343.17 1876.06 C1689.28 1861.39, 1033.56 1860.04, 469.02 1876.06 M2343.17 1876.06 C1665.33 1881.89, 987.02 1882.78, 469.02 1876.06 M469.02 1876.06 C154.86 1873.26, 1.78 1717.99, 0 1407.05 M469.02 1876.06 C158.06 1873.79, 3.43 1722.64, 0 1407.05 M0 1407.05 C5.79 1192.49, 7.68 980.21, 0 469.02 M0 1407.05 C-7.07 1206.93, -7.62 1007.96, 0 469.02 M0 469.02 C0.42 155.28, 159.25 -1.69, 469.02 0 M0 469.02 C-2.59 158.77, 156.83 2.68, 469.02 0" stroke="#e67700" stroke-width="4" fill="none"></path></g></svg>